G04 #@! TF.GenerationSoftware,KiCad,Pcbnew,(5.1.9)-1*
G04 #@! TF.CreationDate,2022-10-24T14:13:19+09:00*
G04 #@! TF.ProjectId,PC-6001mk2_SD,50432d36-3030-4316-9d6b-325f53442e6b,rev?*
G04 #@! TF.SameCoordinates,PX53920b0PY93c3260*
G04 #@! TF.FileFunction,Copper,L1,Top*
G04 #@! TF.FilePolarity,Positive*
%FSLAX46Y46*%
G04 Gerber Fmt 4.6, Leading zero omitted, Abs format (unit mm)*
G04 Created by KiCad (PCBNEW (5.1.9)-1) date 2022-10-24 14:13:19*
%MOMM*%
%LPD*%
G01*
G04 APERTURE LIST*
G04 #@! TA.AperFunction,ComponentPad*
%ADD10C,1.600000*%
G04 #@! TD*
G04 #@! TA.AperFunction,ComponentPad*
%ADD11R,1.600000X2.400000*%
G04 #@! TD*
G04 #@! TA.AperFunction,ComponentPad*
%ADD12O,1.600000X2.400000*%
G04 #@! TD*
G04 #@! TA.AperFunction,ComponentPad*
%ADD13R,1.600000X1.600000*%
G04 #@! TD*
G04 #@! TA.AperFunction,ComponentPad*
%ADD14R,1.700000X1.700000*%
G04 #@! TD*
G04 #@! TA.AperFunction,ComponentPad*
%ADD15O,1.700000X1.700000*%
G04 #@! TD*
G04 #@! TA.AperFunction,ComponentPad*
%ADD16O,1.600000X1.600000*%
G04 #@! TD*
G04 #@! TA.AperFunction,ConnectorPad*
%ADD17R,1.780000X10.000000*%
G04 #@! TD*
G04 #@! TA.AperFunction,ViaPad*
%ADD18C,0.500000*%
G04 #@! TD*
G04 #@! TA.AperFunction,Conductor*
%ADD19C,0.400000*%
G04 #@! TD*
G04 #@! TA.AperFunction,Conductor*
%ADD20C,0.200000*%
G04 #@! TD*
G04 #@! TA.AperFunction,Conductor*
%ADD21C,0.254000*%
G04 #@! TD*
G04 #@! TA.AperFunction,Conductor*
%ADD22C,0.100000*%
G04 #@! TD*
G04 APERTURE END LIST*
D10*
X68310000Y53120000D03*
X68310000Y50620000D03*
D11*
X38130000Y63730000D03*
D12*
X71150000Y78970000D03*
X40670000Y63730000D03*
X68610000Y78970000D03*
X43210000Y63730000D03*
X66070000Y78970000D03*
X45750000Y63730000D03*
X63530000Y78970000D03*
X48290000Y63730000D03*
X60990000Y78970000D03*
X50830000Y63730000D03*
X58450000Y78970000D03*
X53370000Y63730000D03*
X55910000Y78970000D03*
X55910000Y63730000D03*
X53370000Y78970000D03*
X58450000Y63730000D03*
X50830000Y78970000D03*
X60990000Y63730000D03*
X48290000Y78970000D03*
X63530000Y63730000D03*
X45750000Y78970000D03*
X66070000Y63730000D03*
X43210000Y78970000D03*
X68610000Y63730000D03*
X40670000Y78970000D03*
X71150000Y63730000D03*
X38130000Y78970000D03*
D11*
X16240000Y43595000D03*
D12*
X64500000Y58835000D03*
X18780000Y43595000D03*
X61960000Y58835000D03*
X21320000Y43595000D03*
X59420000Y58835000D03*
X23860000Y43595000D03*
X56880000Y58835000D03*
X26400000Y43595000D03*
X54340000Y58835000D03*
X28940000Y43595000D03*
X51800000Y58835000D03*
X31480000Y43595000D03*
X49260000Y58835000D03*
X34020000Y43595000D03*
X46720000Y58835000D03*
X36560000Y43595000D03*
X44180000Y58835000D03*
X39100000Y43595000D03*
X41640000Y58835000D03*
X41640000Y43595000D03*
X39100000Y58835000D03*
X44180000Y43595000D03*
X36560000Y58835000D03*
X46720000Y43595000D03*
X34020000Y58835000D03*
X49260000Y43595000D03*
X31480000Y58835000D03*
X51800000Y43595000D03*
X28940000Y58835000D03*
X54340000Y43595000D03*
X26400000Y58835000D03*
X56880000Y43595000D03*
X23860000Y58835000D03*
X59420000Y43595000D03*
X21320000Y58835000D03*
X61960000Y43595000D03*
X18780000Y58835000D03*
X64500000Y43595000D03*
X16240000Y58835000D03*
D10*
X34320000Y72955000D03*
X34320000Y70455000D03*
D13*
X63770000Y82870000D03*
D10*
X63770000Y85370000D03*
X11075000Y78890000D03*
X11075000Y81390000D03*
X8319000Y68897000D03*
X8319000Y66397000D03*
D11*
X12065000Y63730000D03*
D12*
X27305000Y71350000D03*
X14605000Y63730000D03*
X24765000Y71350000D03*
X17145000Y63730000D03*
X22225000Y71350000D03*
X19685000Y63730000D03*
X19685000Y71350000D03*
X22225000Y63730000D03*
X17145000Y71350000D03*
X24765000Y63730000D03*
X14605000Y71350000D03*
X27305000Y63730000D03*
X12065000Y71350000D03*
D14*
X67310000Y30480000D03*
D15*
X64770000Y30480000D03*
X62230000Y30480000D03*
X59690000Y30480000D03*
X57150000Y30480000D03*
X54610000Y30480000D03*
X52070000Y30480000D03*
X49530000Y30480000D03*
X46990000Y30480000D03*
X46990000Y2540000D03*
X46990000Y5080000D03*
X67310000Y2540000D03*
X67310000Y5080000D03*
D13*
X33742000Y5918000D03*
D16*
X33742000Y8458000D03*
X33742000Y10998000D03*
X18502000Y33858000D03*
X33742000Y13538000D03*
X18502000Y31318000D03*
X33742000Y16078000D03*
X18502000Y28778000D03*
X33742000Y18618000D03*
X18502000Y26238000D03*
X33742000Y21158000D03*
X18502000Y23698000D03*
X33742000Y23698000D03*
X18502000Y21158000D03*
X33742000Y26238000D03*
X18502000Y18618000D03*
X33742000Y28778000D03*
X18502000Y16078000D03*
X33742000Y31318000D03*
X18502000Y13538000D03*
X33742000Y33858000D03*
X18502000Y10998000D03*
X18502000Y8458000D03*
X18502000Y5918000D03*
X21042000Y14808000D03*
X21042000Y17348000D03*
X21042000Y24968000D03*
X21042000Y27508000D03*
D12*
X14922000Y83820000D03*
X30162000Y76200000D03*
X17462000Y83820000D03*
X27622000Y76200000D03*
X20002000Y83820000D03*
X25082000Y76200000D03*
X22542000Y83820000D03*
X22542000Y76200000D03*
X25082000Y83820000D03*
X20002000Y76200000D03*
X27622000Y83820000D03*
X17462000Y76200000D03*
X30162000Y83820000D03*
D11*
X14922000Y76200000D03*
D17*
X9000000Y94615000D03*
X11540000Y94615000D03*
X14080000Y94615000D03*
X16620000Y94615000D03*
X19160000Y94615000D03*
X21700000Y94615000D03*
X24240000Y94615000D03*
X26780000Y94615000D03*
X29320000Y94615000D03*
X31860000Y94615000D03*
X34400000Y94615000D03*
X36940000Y94615000D03*
X39480000Y94615000D03*
X42020000Y94615000D03*
X44560000Y94615000D03*
X47100000Y94615000D03*
X49640000Y94615000D03*
X52180000Y94615000D03*
X54720000Y94615000D03*
X57260000Y94615000D03*
X59800000Y94615000D03*
X62340000Y94615000D03*
X64880000Y94615000D03*
X67420000Y94615000D03*
X69960000Y94615000D03*
D14*
X63500000Y38100000D03*
D15*
X60960000Y38100000D03*
X58420000Y38100000D03*
X55880000Y38100000D03*
X53340000Y38100000D03*
X50800000Y38100000D03*
D18*
X23000000Y73500000D03*
X60862700Y73907400D03*
X47789300Y67775200D03*
X66070000Y81422100D03*
X50065000Y68103600D03*
X53886400Y68774800D03*
X55088900Y71865600D03*
X60990000Y85603500D03*
X48347400Y67201700D03*
X40655000Y83407200D03*
X51434200Y77335100D03*
X44951900Y68555900D03*
X32681700Y80816700D03*
X37926800Y87634200D03*
X46878400Y88723700D03*
X36233200Y66276600D03*
X33417000Y79281800D03*
X33790900Y88887000D03*
X42899400Y69024500D03*
X25027500Y81405400D03*
X25733700Y88818200D03*
X26626100Y78465800D03*
X31706800Y20817800D03*
X23834800Y81808700D03*
X28940000Y75222600D03*
D19*
X60960000Y38100000D02*
X60960000Y39350300D01*
X60690000Y53120000D02*
X60690000Y39620300D01*
X60690000Y39620300D02*
X60960000Y39350300D01*
X60690000Y53120000D02*
X57515000Y53120000D01*
X57515000Y53120000D02*
X51800000Y58835000D01*
X68010200Y53120000D02*
X60690000Y53120000D01*
X38130000Y63730000D02*
X38130000Y69145000D01*
X38130000Y69145000D02*
X34320000Y72955000D01*
X63770000Y82870000D02*
X63770000Y81669700D01*
X68010200Y53120000D02*
X69828400Y54938200D01*
X69828400Y54938200D02*
X69828400Y64960900D01*
X69828400Y64960900D02*
X64800000Y69989300D01*
X64800000Y69989300D02*
X64800000Y80639700D01*
X64800000Y80639700D02*
X63770000Y81669700D01*
X68310000Y53120000D02*
X68010200Y53120000D01*
X12297200Y73182500D02*
X12297200Y80167800D01*
X12297200Y80167800D02*
X11075000Y81390000D01*
X12065000Y72950300D02*
X12297200Y73182500D01*
X12297200Y73182500D02*
X16912800Y73182500D01*
X16912800Y73182500D02*
X17145000Y72950300D01*
X17145000Y71350000D02*
X17145000Y72950300D01*
X12065000Y71350000D02*
X12065000Y72950300D01*
X12065000Y71350000D02*
X10772000Y71350000D01*
X10772000Y71350000D02*
X8319000Y68897000D01*
X14922000Y83820000D02*
X13505000Y83820000D01*
X13505000Y83820000D02*
X11075000Y81390000D01*
X34320000Y72955000D02*
X34320000Y75160000D01*
X34320000Y75160000D02*
X38130000Y78970000D01*
X8319000Y66397000D02*
X7053800Y67662200D01*
X7053800Y67662200D02*
X7053800Y74868800D01*
X7053800Y74868800D02*
X11075000Y78890000D01*
X63500000Y38100000D02*
X63500000Y39350300D01*
X63500000Y39350300D02*
X68310000Y44160300D01*
X68310000Y44160300D02*
X68310000Y50620000D01*
X59690000Y31730300D02*
X63500000Y35540300D01*
X63500000Y35540300D02*
X63500000Y38100000D01*
X59690000Y30480000D02*
X59690000Y31730300D01*
X30162000Y76200000D02*
X30162000Y74599700D01*
X34320000Y70455000D02*
X30175300Y74599700D01*
X30175300Y74599700D02*
X30162000Y74599700D01*
X34320000Y70455000D02*
X32750000Y68885000D01*
X32750000Y68885000D02*
X32750000Y46465300D01*
X32750000Y46465300D02*
X31480000Y45195300D01*
X36756400Y12243200D02*
X34191600Y14808000D01*
X34191600Y14808000D02*
X33291500Y14808000D01*
X33291500Y14808000D02*
X31050700Y17048800D01*
X31050700Y17048800D02*
X31050700Y41565400D01*
X31050700Y41565400D02*
X31480000Y41994700D01*
X59690000Y30480000D02*
X41453200Y12243200D01*
X41453200Y12243200D02*
X36756400Y12243200D01*
X19702300Y8458000D02*
X21041900Y9797600D01*
X21041900Y9797600D02*
X34310800Y9797600D01*
X34310800Y9797600D02*
X36756400Y12243200D01*
X31480000Y43595000D02*
X31480000Y41994700D01*
X31480000Y44395200D02*
X31480000Y43595000D01*
X18502000Y8458000D02*
X19702300Y8458000D01*
X31480000Y44395200D02*
X31480000Y45195300D01*
X71150000Y63730000D02*
X71150000Y65330300D01*
X71150000Y65330300D02*
X67408900Y69071400D01*
X67408900Y69071400D02*
X67408900Y81731100D01*
X67408900Y81731100D02*
X63770000Y85370000D01*
X68310000Y50620000D02*
X71150000Y53460000D01*
X71150000Y53460000D02*
X71150000Y63730000D01*
X23000000Y73500000D02*
X21000000Y73500000D01*
X20002000Y74498000D02*
X20002000Y76200000D01*
X21000000Y73500000D02*
X20002000Y74498000D01*
D20*
X49640000Y89314700D02*
X52100000Y86854700D01*
X52100000Y86854700D02*
X52100000Y76660300D01*
X52100000Y76660300D02*
X63530000Y65230300D01*
X63530000Y63730000D02*
X63530000Y65230300D01*
X49640000Y94615000D02*
X49640000Y89314700D01*
X52180000Y89314700D02*
X57180000Y84314700D01*
X57180000Y84314700D02*
X57180000Y76660300D01*
X57180000Y76660300D02*
X68610000Y65230300D01*
X68610000Y63730000D02*
X68610000Y65230300D01*
X52180000Y94615000D02*
X52180000Y89314700D01*
X54720000Y89314700D02*
X59720000Y84314700D01*
X59720000Y84314700D02*
X59720000Y75050100D01*
X59720000Y75050100D02*
X60862700Y73907400D01*
X54720000Y94615000D02*
X54720000Y89314700D01*
X41640000Y60335300D02*
X41868000Y60335300D01*
X41868000Y60335300D02*
X44621700Y63089000D01*
X44621700Y63089000D02*
X44621700Y64607600D01*
X44621700Y64607600D02*
X47789300Y67775200D01*
X41640000Y58835000D02*
X41640000Y60335300D01*
X66070000Y78970000D02*
X66070000Y81422100D01*
X44180000Y58835000D02*
X44180000Y60335300D01*
X44180000Y60335300D02*
X45760600Y61915900D01*
X45760600Y61915900D02*
X48482400Y61915900D01*
X48482400Y61915900D02*
X49560000Y62993500D01*
X49560000Y62993500D02*
X49560000Y67598600D01*
X49560000Y67598600D02*
X50065000Y68103600D01*
X46720000Y58835000D02*
X46720000Y60335300D01*
X53886400Y68774800D02*
X52100000Y66988400D01*
X52100000Y66988400D02*
X52100000Y63036800D01*
X52100000Y63036800D02*
X49398500Y60335300D01*
X49398500Y60335300D02*
X46720000Y60335300D01*
X63530000Y78970000D02*
X63530000Y80470300D01*
X57260000Y94615000D02*
X57260000Y89314700D01*
X57260000Y89314700D02*
X58078300Y89314700D01*
X58078300Y89314700D02*
X62669600Y84723400D01*
X62669600Y84723400D02*
X62669600Y81330700D01*
X62669600Y81330700D02*
X63530000Y80470300D01*
X55088900Y71865600D02*
X54640000Y71416700D01*
X54640000Y71416700D02*
X54640000Y62997400D01*
X54640000Y62997400D02*
X53634200Y61991600D01*
X53634200Y61991600D02*
X52416600Y61991600D01*
X52416600Y61991600D02*
X49260000Y58835000D01*
X60990000Y85603500D02*
X60990000Y78970000D01*
X48347400Y67201700D02*
X48347400Y68042100D01*
X48347400Y68042100D02*
X48062000Y68327500D01*
X48062000Y68327500D02*
X46611200Y68327500D01*
X46611200Y68327500D02*
X46270800Y67987100D01*
X46270800Y67987100D02*
X44724000Y67987100D01*
X44724000Y67987100D02*
X43113200Y69597900D01*
X43113200Y69597900D02*
X42020000Y69597900D01*
X42020000Y69597900D02*
X42020000Y61415200D01*
X42020000Y61415200D02*
X40524700Y59919900D01*
X40524700Y59919900D02*
X40524700Y49060000D01*
X40524700Y49060000D02*
X36560000Y45095300D01*
X42020000Y94615000D02*
X42020000Y69597900D01*
X36560000Y43595000D02*
X36560000Y45095300D01*
X36940000Y89314700D02*
X37038000Y89314700D01*
X37038000Y89314700D02*
X40655000Y85697700D01*
X40655000Y85697700D02*
X40655000Y83407200D01*
X36940000Y94615000D02*
X36940000Y89314700D01*
X58450000Y63730000D02*
X58450000Y62229700D01*
X58450000Y62229700D02*
X57343100Y61122800D01*
X57343100Y61122800D02*
X52114100Y61122800D01*
X52114100Y61122800D02*
X50439100Y59447800D01*
X50439100Y59447800D02*
X50439100Y57134300D01*
X50439100Y57134300D02*
X37830000Y44525200D01*
X37830000Y44525200D02*
X37830000Y42901400D01*
X37830000Y42901400D02*
X37023300Y42094700D01*
X37023300Y42094700D02*
X34020000Y42094700D01*
X51434200Y77335100D02*
X51434200Y76614500D01*
X51434200Y76614500D02*
X58450000Y69598700D01*
X58450000Y69598700D02*
X58450000Y63730000D01*
X34020000Y43595000D02*
X34020000Y42094700D01*
X44560000Y94615000D02*
X44560000Y68947800D01*
X44560000Y68947800D02*
X44951900Y68555900D01*
X31860000Y94615000D02*
X31860000Y89314700D01*
X31860000Y89314700D02*
X32681700Y88493000D01*
X32681700Y88493000D02*
X32681700Y80816700D01*
X50830000Y65230300D02*
X50830000Y68786400D01*
X50830000Y68786400D02*
X49430600Y70185800D01*
X49430600Y70185800D02*
X49430600Y86984100D01*
X49430600Y86984100D02*
X47100000Y89314700D01*
X50830000Y63730000D02*
X50830000Y65230300D01*
X47100000Y94615000D02*
X47100000Y89314700D01*
X40670000Y65230300D02*
X39406100Y66494200D01*
X39406100Y66494200D02*
X39406100Y86154900D01*
X39406100Y86154900D02*
X37926800Y87634200D01*
X40670000Y63730000D02*
X40670000Y65230300D01*
X48290000Y65230300D02*
X48900300Y65840600D01*
X48900300Y65840600D02*
X48900300Y68452000D01*
X48900300Y68452000D02*
X46878400Y70473900D01*
X46878400Y70473900D02*
X46878400Y88723700D01*
X48290000Y63730000D02*
X48290000Y65230300D01*
X34400000Y89314700D02*
X34400000Y78080400D01*
X34400000Y78080400D02*
X33205700Y76886100D01*
X33205700Y76886100D02*
X33205700Y72483100D01*
X33205700Y72483100D02*
X33842100Y71846700D01*
X33842100Y71846700D02*
X34501000Y71846700D01*
X34501000Y71846700D02*
X36233100Y70114600D01*
X36233100Y70114600D02*
X36233100Y66276600D01*
X36233100Y66276600D02*
X36233200Y66276600D01*
X34400000Y94615000D02*
X34400000Y89314700D01*
X33417000Y79281800D02*
X33790900Y79655700D01*
X33790900Y79655700D02*
X33790900Y88887000D01*
X42899400Y69024500D02*
X42899400Y65540900D01*
X42899400Y65540900D02*
X43210000Y65230300D01*
X43210000Y63730000D02*
X43210000Y65230300D01*
X24426100Y81405400D02*
X25027500Y81405400D01*
X24426100Y81405400D02*
X23664600Y80643900D01*
X23664600Y80643900D02*
X23664600Y62314700D01*
X23664600Y62314700D02*
X24960400Y61018900D01*
X24960400Y61018900D02*
X24960400Y46534900D01*
X24960400Y46534900D02*
X26400000Y45095300D01*
X24240000Y89314700D02*
X23975100Y89049800D01*
X23975100Y89049800D02*
X23975100Y82712500D01*
X23975100Y82712500D02*
X24426100Y82261500D01*
X24426100Y82261500D02*
X24426100Y81405400D01*
X26400000Y43595000D02*
X26400000Y45095300D01*
X24240000Y94615000D02*
X24240000Y89314700D01*
X26400000Y58835000D02*
X26400000Y60335300D01*
X25733700Y88818200D02*
X26191000Y88360900D01*
X26191000Y88360900D02*
X26191000Y80114200D01*
X26191000Y80114200D02*
X26045400Y79968600D01*
X26045400Y79968600D02*
X26045400Y78052400D01*
X26045400Y78052400D02*
X26204500Y77893300D01*
X26204500Y77893300D02*
X26204500Y60530800D01*
X26204500Y60530800D02*
X26400000Y60335300D01*
X30162000Y82319700D02*
X26626100Y78783800D01*
X26626100Y78783800D02*
X26626100Y78465800D01*
X30162000Y83820000D02*
X30162000Y82319700D01*
X27305000Y69849700D02*
X28455300Y68699400D01*
X28455300Y68699400D02*
X28455300Y61680100D01*
X28455300Y61680100D02*
X27836500Y61061300D01*
X27836500Y61061300D02*
X27836500Y46198800D01*
X27836500Y46198800D02*
X28940000Y45095300D01*
X28940000Y43595000D02*
X28940000Y45095300D01*
X27305000Y71350000D02*
X27305000Y69849700D01*
X21042000Y14808000D02*
X21042000Y15908300D01*
X21042000Y15908300D02*
X20904300Y15908300D01*
X20904300Y15908300D02*
X19941700Y16870900D01*
X19941700Y16870900D02*
X19941700Y18734600D01*
X19941700Y18734600D02*
X18788300Y19888000D01*
X18788300Y19888000D02*
X18181500Y19888000D01*
X18181500Y19888000D02*
X16240000Y21829500D01*
X16240000Y21829500D02*
X16240000Y43595000D01*
X18780000Y43595000D02*
X18780000Y42094700D01*
X21042000Y17348000D02*
X21042000Y18448300D01*
X21042000Y18448300D02*
X19941700Y19548600D01*
X19941700Y19548600D02*
X19941700Y40933000D01*
X19941700Y40933000D02*
X18780000Y42094700D01*
X54340000Y42094700D02*
X53160400Y42094700D01*
X53160400Y42094700D02*
X49411700Y38346000D01*
X49411700Y38346000D02*
X49411700Y37811400D01*
X49411700Y37811400D02*
X33886700Y22286400D01*
X33886700Y22286400D02*
X33175400Y22286400D01*
X33175400Y22286400D02*
X31706800Y20817800D01*
X54340000Y43595000D02*
X54340000Y42094700D01*
X59420000Y43595000D02*
X59420000Y42094700D01*
X33742000Y16078000D02*
X33742000Y17178300D01*
X33742000Y17178300D02*
X33604500Y17178300D01*
X33604500Y17178300D02*
X32634500Y18148300D01*
X32634500Y18148300D02*
X32634500Y19071700D01*
X32634500Y19071700D02*
X33450800Y19888000D01*
X33450800Y19888000D02*
X34252200Y19888000D01*
X34252200Y19888000D02*
X52070000Y37705800D01*
X52070000Y37705800D02*
X52070000Y38459700D01*
X52070000Y38459700D02*
X55705000Y42094700D01*
X55705000Y42094700D02*
X59420000Y42094700D01*
X61960000Y43595000D02*
X61960000Y42094700D01*
X33742000Y18618000D02*
X46915000Y18618000D01*
X46915000Y18618000D02*
X58420000Y30123000D01*
X58420000Y30123000D02*
X58420000Y33659800D01*
X58420000Y33659800D02*
X62137100Y37376900D01*
X62137100Y37376900D02*
X62137100Y41917600D01*
X62137100Y41917600D02*
X61960000Y42094700D01*
X64880000Y94615000D02*
X62340000Y94615000D01*
X53340000Y38100000D02*
X53340000Y36949700D01*
X53340000Y36949700D02*
X57150000Y33139700D01*
X57150000Y33139700D02*
X57150000Y30480000D01*
X22549500Y81808700D02*
X23834800Y81808700D01*
X21102400Y84694800D02*
X21102400Y83255800D01*
X16482500Y89314700D02*
X21102400Y84694800D01*
X21102400Y83255800D02*
X22549500Y81808700D01*
X9100300Y89314700D02*
X16482500Y89314700D01*
X9000000Y89415000D02*
X9100300Y89314700D01*
X9000000Y94615000D02*
X9000000Y89415000D01*
X28940000Y58835000D02*
X28940000Y75222600D01*
X16361990Y77639990D02*
X14922000Y76200000D01*
X16361990Y84675639D02*
X16361990Y77639990D01*
X17006361Y85320010D02*
X16361990Y84675639D01*
X18501990Y85320010D02*
X17006361Y85320010D01*
X20002000Y83820000D02*
X18501990Y85320010D01*
X22759990Y21980010D02*
X33742000Y10998000D01*
X22759990Y61239361D02*
X22759990Y21980010D01*
X21124990Y62874361D02*
X22759990Y61239361D01*
X21124990Y64375010D02*
X21124990Y62874361D01*
X18245010Y67254990D02*
X21124990Y64375010D01*
X18245010Y75416990D02*
X18245010Y67254990D01*
X17462000Y76200000D02*
X18245010Y75416990D01*
D21*
X8505808Y88869746D02*
X8555041Y88820513D01*
X8578062Y88792462D01*
X8689980Y88700613D01*
X8817667Y88632363D01*
X8956215Y88590335D01*
X9064195Y88579700D01*
X9100300Y88576144D01*
X9136405Y88579700D01*
X16178054Y88579700D01*
X18742685Y86015069D01*
X18646075Y86044375D01*
X18538095Y86055010D01*
X18501990Y86058566D01*
X18465885Y86055010D01*
X17042455Y86055010D01*
X17006360Y86058565D01*
X16970265Y86055010D01*
X16970256Y86055010D01*
X16862276Y86044375D01*
X16723728Y86002347D01*
X16596041Y85934097D01*
X16484123Y85842248D01*
X16461107Y85814203D01*
X15911347Y85264442D01*
X15723100Y85418932D01*
X15473807Y85552182D01*
X15203308Y85634236D01*
X14922000Y85661943D01*
X14640691Y85634236D01*
X14370192Y85552182D01*
X14120899Y85418932D01*
X13902392Y85239607D01*
X13723068Y85021100D01*
X13589818Y84771807D01*
X13554385Y84655000D01*
X13546018Y84655000D01*
X13505000Y84659040D01*
X13341311Y84642918D01*
X13183913Y84595172D01*
X13038854Y84517636D01*
X12945189Y84440767D01*
X12911709Y84413291D01*
X12885563Y84381432D01*
X11310418Y82806286D01*
X11216335Y82825000D01*
X10933665Y82825000D01*
X10656426Y82769853D01*
X10395273Y82661680D01*
X10160241Y82504637D01*
X9960363Y82304759D01*
X9803320Y82069727D01*
X9695147Y81808574D01*
X9640000Y81531335D01*
X9640000Y81248665D01*
X9695147Y80971426D01*
X9803320Y80710273D01*
X9960363Y80475241D01*
X10160241Y80275363D01*
X10360869Y80141308D01*
X10333486Y80126671D01*
X10261903Y79882702D01*
X11075000Y79069605D01*
X11089143Y79083747D01*
X11268748Y78904142D01*
X11254605Y78890000D01*
X11268748Y78875857D01*
X11089143Y78696252D01*
X11075000Y78710395D01*
X10261903Y77897298D01*
X10333486Y77653329D01*
X10588996Y77532429D01*
X10863184Y77463700D01*
X11145512Y77449783D01*
X11425130Y77491213D01*
X11462201Y77504470D01*
X11462200Y73532003D01*
X11426248Y73488195D01*
X11367364Y73416445D01*
X11289828Y73271386D01*
X11242082Y73113988D01*
X11225960Y72950300D01*
X11228922Y72920227D01*
X11045392Y72769607D01*
X10866068Y72551100D01*
X10732818Y72301807D01*
X10696351Y72181589D01*
X10608311Y72172918D01*
X10450913Y72125172D01*
X10305854Y72047636D01*
X10236581Y71990785D01*
X10178709Y71943291D01*
X10152563Y71911432D01*
X8554418Y70313286D01*
X8460335Y70332000D01*
X8177665Y70332000D01*
X7900426Y70276853D01*
X7639273Y70168680D01*
X7404241Y70011637D01*
X7204363Y69811759D01*
X7047320Y69576727D01*
X6939147Y69315574D01*
X6884000Y69038335D01*
X6884000Y68755665D01*
X6939147Y68478426D01*
X7047320Y68217273D01*
X7204363Y67982241D01*
X7404241Y67782363D01*
X7604869Y67648308D01*
X7577486Y67633671D01*
X7505903Y67389702D01*
X8319000Y66576605D01*
X9132097Y67389702D01*
X9060514Y67633671D01*
X9031659Y67647324D01*
X9233759Y67782363D01*
X9433637Y67982241D01*
X9590680Y68217273D01*
X9698853Y68478426D01*
X9754000Y68755665D01*
X9754000Y69038335D01*
X9735286Y69132418D01*
X10826254Y70223386D01*
X10866068Y70148899D01*
X11045393Y69930392D01*
X11263900Y69751068D01*
X11513193Y69617818D01*
X11783692Y69535764D01*
X12065000Y69508057D01*
X12346309Y69535764D01*
X12616808Y69617818D01*
X12866101Y69751068D01*
X13084608Y69930392D01*
X13263932Y70148899D01*
X13335000Y70281858D01*
X13406068Y70148899D01*
X13585393Y69930392D01*
X13803900Y69751068D01*
X14053193Y69617818D01*
X14323692Y69535764D01*
X14605000Y69508057D01*
X14886309Y69535764D01*
X15156808Y69617818D01*
X15406101Y69751068D01*
X15624608Y69930392D01*
X15803932Y70148899D01*
X15875000Y70281858D01*
X15946068Y70148899D01*
X16125393Y69930392D01*
X16343900Y69751068D01*
X16593193Y69617818D01*
X16863692Y69535764D01*
X17145000Y69508057D01*
X17426309Y69535764D01*
X17510011Y69561154D01*
X17510011Y67291105D01*
X17506454Y67254990D01*
X17520645Y67110905D01*
X17550770Y67011600D01*
X17562674Y66972357D01*
X17630924Y66844670D01*
X17722773Y66732752D01*
X17750818Y66709736D01*
X19045333Y65415220D01*
X18883899Y65328932D01*
X18665392Y65149607D01*
X18486068Y64931100D01*
X18415000Y64798142D01*
X18343932Y64931101D01*
X18164607Y65149608D01*
X17946100Y65328932D01*
X17696807Y65462182D01*
X17426308Y65544236D01*
X17145000Y65571943D01*
X16863691Y65544236D01*
X16593192Y65462182D01*
X16343899Y65328932D01*
X16125392Y65149607D01*
X15946068Y64931100D01*
X15875000Y64798142D01*
X15803932Y64931101D01*
X15624607Y65149608D01*
X15406100Y65328932D01*
X15156807Y65462182D01*
X14886308Y65544236D01*
X14605000Y65571943D01*
X14323691Y65544236D01*
X14053192Y65462182D01*
X13803899Y65328932D01*
X13585392Y65149607D01*
X13492581Y65036517D01*
X13490812Y65054482D01*
X13454502Y65174180D01*
X13395537Y65284494D01*
X13316185Y65381185D01*
X13219494Y65460537D01*
X13109180Y65519502D01*
X12989482Y65555812D01*
X12865000Y65568072D01*
X11265000Y65568072D01*
X11140518Y65555812D01*
X11020820Y65519502D01*
X10910506Y65460537D01*
X10813815Y65381185D01*
X10734463Y65284494D01*
X10675498Y65174180D01*
X10639188Y65054482D01*
X10626928Y64930000D01*
X10626928Y62530000D01*
X10639188Y62405518D01*
X10675498Y62285820D01*
X10734463Y62175506D01*
X10813815Y62078815D01*
X10910506Y61999463D01*
X11020820Y61940498D01*
X11140518Y61904188D01*
X11265000Y61891928D01*
X12865000Y61891928D01*
X12989482Y61904188D01*
X13109180Y61940498D01*
X13219494Y61999463D01*
X13316185Y62078815D01*
X13395537Y62175506D01*
X13454502Y62285820D01*
X13490812Y62405518D01*
X13492581Y62423483D01*
X13585393Y62310392D01*
X13803900Y62131068D01*
X14053193Y61997818D01*
X14323692Y61915764D01*
X14605000Y61888057D01*
X14886309Y61915764D01*
X15156808Y61997818D01*
X15406101Y62131068D01*
X15624608Y62310392D01*
X15803932Y62528899D01*
X15875000Y62661858D01*
X15946068Y62528899D01*
X16125393Y62310392D01*
X16343900Y62131068D01*
X16593193Y61997818D01*
X16863692Y61915764D01*
X17145000Y61888057D01*
X17426309Y61915764D01*
X17696808Y61997818D01*
X17946101Y62131068D01*
X18164608Y62310392D01*
X18343932Y62528899D01*
X18415000Y62661858D01*
X18486068Y62528899D01*
X18665393Y62310392D01*
X18883900Y62131068D01*
X19133193Y61997818D01*
X19403692Y61915764D01*
X19685000Y61888057D01*
X19966309Y61915764D01*
X20236808Y61997818D01*
X20486101Y62131068D01*
X20674347Y62285558D01*
X22024990Y60934914D01*
X22024990Y60485304D01*
X21871807Y60567182D01*
X21601308Y60649236D01*
X21320000Y60676943D01*
X21038691Y60649236D01*
X20768192Y60567182D01*
X20518899Y60433932D01*
X20300392Y60254607D01*
X20121068Y60036100D01*
X20050000Y59903142D01*
X19978932Y60036101D01*
X19799607Y60254608D01*
X19581100Y60433932D01*
X19331807Y60567182D01*
X19061308Y60649236D01*
X18780000Y60676943D01*
X18498691Y60649236D01*
X18228192Y60567182D01*
X17978899Y60433932D01*
X17760392Y60254607D01*
X17581068Y60036100D01*
X17510000Y59903142D01*
X17438932Y60036101D01*
X17259607Y60254608D01*
X17041100Y60433932D01*
X16791807Y60567182D01*
X16521308Y60649236D01*
X16240000Y60676943D01*
X15958691Y60649236D01*
X15688192Y60567182D01*
X15438899Y60433932D01*
X15220392Y60254607D01*
X15041068Y60036100D01*
X14907818Y59786807D01*
X14825764Y59516308D01*
X14805000Y59305491D01*
X14805000Y58364508D01*
X14825764Y58153691D01*
X14907818Y57883192D01*
X15041068Y57633899D01*
X15220393Y57415392D01*
X15438900Y57236068D01*
X15688193Y57102818D01*
X15958692Y57020764D01*
X16240000Y56993057D01*
X16521309Y57020764D01*
X16791808Y57102818D01*
X17041101Y57236068D01*
X17259608Y57415392D01*
X17438932Y57633899D01*
X17510000Y57766858D01*
X17581068Y57633899D01*
X17760393Y57415392D01*
X17978900Y57236068D01*
X18228193Y57102818D01*
X18498692Y57020764D01*
X18780000Y56993057D01*
X19061309Y57020764D01*
X19331808Y57102818D01*
X19581101Y57236068D01*
X19799608Y57415392D01*
X19978932Y57633899D01*
X20050000Y57766858D01*
X20121068Y57633899D01*
X20300393Y57415392D01*
X20518900Y57236068D01*
X20768193Y57102818D01*
X21038692Y57020764D01*
X21320000Y56993057D01*
X21601309Y57020764D01*
X21871808Y57102818D01*
X22024990Y57184696D01*
X22024990Y45245304D01*
X21871807Y45327182D01*
X21601308Y45409236D01*
X21320000Y45436943D01*
X21038691Y45409236D01*
X20768192Y45327182D01*
X20518899Y45193932D01*
X20300392Y45014607D01*
X20121068Y44796100D01*
X20050000Y44663142D01*
X19978932Y44796101D01*
X19799607Y45014608D01*
X19581100Y45193932D01*
X19331807Y45327182D01*
X19061308Y45409236D01*
X18780000Y45436943D01*
X18498691Y45409236D01*
X18228192Y45327182D01*
X17978899Y45193932D01*
X17760392Y45014607D01*
X17667581Y44901517D01*
X17665812Y44919482D01*
X17629502Y45039180D01*
X17570537Y45149494D01*
X17491185Y45246185D01*
X17394494Y45325537D01*
X17284180Y45384502D01*
X17164482Y45420812D01*
X17040000Y45433072D01*
X15440000Y45433072D01*
X15315518Y45420812D01*
X15195820Y45384502D01*
X15085506Y45325537D01*
X14988815Y45246185D01*
X14909463Y45149494D01*
X14850498Y45039180D01*
X14814188Y44919482D01*
X14801928Y44795000D01*
X14801928Y42395000D01*
X14814188Y42270518D01*
X14850498Y42150820D01*
X14909463Y42040506D01*
X14988815Y41943815D01*
X15085506Y41864463D01*
X15195820Y41805498D01*
X15315518Y41769188D01*
X15440000Y41756928D01*
X15505001Y41756928D01*
X15505000Y21865605D01*
X15501444Y21829500D01*
X15505000Y21793396D01*
X15515635Y21685416D01*
X15557663Y21546868D01*
X15625913Y21419181D01*
X15717762Y21307263D01*
X15745808Y21284246D01*
X17442329Y19587725D01*
X17387363Y19532759D01*
X17230320Y19297727D01*
X17122147Y19036574D01*
X17067000Y18759335D01*
X17067000Y18476665D01*
X17122147Y18199426D01*
X17230320Y17938273D01*
X17387363Y17703241D01*
X17587241Y17503363D01*
X17819759Y17348000D01*
X17587241Y17192637D01*
X17387363Y16992759D01*
X17230320Y16757727D01*
X17122147Y16496574D01*
X17067000Y16219335D01*
X17067000Y15936665D01*
X17122147Y15659426D01*
X17230320Y15398273D01*
X17387363Y15163241D01*
X17587241Y14963363D01*
X17819759Y14808000D01*
X17587241Y14652637D01*
X17387363Y14452759D01*
X17230320Y14217727D01*
X17122147Y13956574D01*
X17067000Y13679335D01*
X17067000Y13396665D01*
X17122147Y13119426D01*
X17230320Y12858273D01*
X17387363Y12623241D01*
X17587241Y12423363D01*
X17819759Y12268000D01*
X17587241Y12112637D01*
X17387363Y11912759D01*
X17230320Y11677727D01*
X17122147Y11416574D01*
X17067000Y11139335D01*
X17067000Y10856665D01*
X17122147Y10579426D01*
X17230320Y10318273D01*
X17387363Y10083241D01*
X17587241Y9883363D01*
X17822273Y9726320D01*
X17832865Y9721933D01*
X17646869Y9610385D01*
X17438481Y9421414D01*
X17270963Y9195420D01*
X17150754Y8941087D01*
X17110096Y8807039D01*
X17232085Y8585000D01*
X18375000Y8585000D01*
X18375000Y8605000D01*
X18629000Y8605000D01*
X18629000Y8585000D01*
X19771915Y8585000D01*
X19893904Y8807039D01*
X19853246Y8941087D01*
X19733037Y9195420D01*
X19565519Y9421414D01*
X19357131Y9610385D01*
X19171135Y9721933D01*
X19181727Y9726320D01*
X19416759Y9883363D01*
X19616637Y10083241D01*
X19773680Y10318273D01*
X19881853Y10579426D01*
X19937000Y10856665D01*
X19937000Y11139335D01*
X19881853Y11416574D01*
X19773680Y11677727D01*
X19616637Y11912759D01*
X19416759Y12112637D01*
X19184241Y12268000D01*
X19416759Y12423363D01*
X19616637Y12623241D01*
X19773680Y12858273D01*
X19881853Y13119426D01*
X19937000Y13396665D01*
X19937000Y13679335D01*
X19881853Y13956574D01*
X19876646Y13969144D01*
X19927363Y13893241D01*
X20127241Y13693363D01*
X20362273Y13536320D01*
X20623426Y13428147D01*
X20900665Y13373000D01*
X21183335Y13373000D01*
X21460574Y13428147D01*
X21721727Y13536320D01*
X21956759Y13693363D01*
X22156637Y13893241D01*
X22313680Y14128273D01*
X22421853Y14389426D01*
X22477000Y14666665D01*
X22477000Y14949335D01*
X22421853Y15226574D01*
X22313680Y15487727D01*
X22156637Y15722759D01*
X21956759Y15922637D01*
X21766632Y16049676D01*
X21766365Y16052385D01*
X21752805Y16097086D01*
X21956759Y16233363D01*
X22156637Y16433241D01*
X22313680Y16668273D01*
X22421853Y16929426D01*
X22477000Y17206665D01*
X22477000Y17489335D01*
X22421853Y17766574D01*
X22313680Y18027727D01*
X22156637Y18262759D01*
X21956759Y18462637D01*
X21766632Y18589676D01*
X21766365Y18592385D01*
X21724337Y18730933D01*
X21656087Y18858620D01*
X21564238Y18970538D01*
X21536193Y18993554D01*
X20676700Y19853046D01*
X20676700Y23577550D01*
X20900665Y23533000D01*
X21183335Y23533000D01*
X21460574Y23588147D01*
X21721727Y23696320D01*
X21956759Y23853363D01*
X22024991Y23921595D01*
X22024991Y22016125D01*
X22021434Y21980010D01*
X22035625Y21835925D01*
X22076009Y21702800D01*
X22077654Y21697377D01*
X22145904Y21569690D01*
X22237753Y21457772D01*
X22265798Y21434756D01*
X32349178Y11351375D01*
X32307000Y11139335D01*
X32307000Y10856665D01*
X32362147Y10579426D01*
X32470320Y10318273D01*
X32627363Y10083241D01*
X32827241Y9883363D01*
X33059759Y9728000D01*
X32827241Y9572637D01*
X32627363Y9372759D01*
X32470320Y9137727D01*
X32362147Y8876574D01*
X32307000Y8599335D01*
X32307000Y8316665D01*
X32362147Y8039426D01*
X32470320Y7778273D01*
X32627363Y7543241D01*
X32825961Y7344643D01*
X32817518Y7343812D01*
X32697820Y7307502D01*
X32587506Y7248537D01*
X32490815Y7169185D01*
X32411463Y7072494D01*
X32352498Y6962180D01*
X32316188Y6842482D01*
X32303928Y6718000D01*
X32303928Y5118000D01*
X32316188Y4993518D01*
X32352498Y4873820D01*
X32411463Y4763506D01*
X32490815Y4666815D01*
X32587506Y4587463D01*
X32697820Y4528498D01*
X32817518Y4492188D01*
X32942000Y4479928D01*
X34542000Y4479928D01*
X34666482Y4492188D01*
X34786180Y4528498D01*
X34896494Y4587463D01*
X34993185Y4666815D01*
X35072537Y4763506D01*
X35131502Y4873820D01*
X35167812Y4993518D01*
X35180072Y5118000D01*
X35180072Y5226260D01*
X45505000Y5226260D01*
X45505000Y4933740D01*
X45562068Y4646842D01*
X45674010Y4376589D01*
X45836525Y4133368D01*
X46043368Y3926525D01*
X46217760Y3810000D01*
X46043368Y3693475D01*
X45836525Y3486632D01*
X45674010Y3243411D01*
X45562068Y2973158D01*
X45505000Y2686260D01*
X45505000Y2393740D01*
X45562068Y2106842D01*
X45674010Y1836589D01*
X45836525Y1593368D01*
X46043368Y1386525D01*
X46286589Y1224010D01*
X46556842Y1112068D01*
X46843740Y1055000D01*
X47136260Y1055000D01*
X47423158Y1112068D01*
X47693411Y1224010D01*
X47936632Y1386525D01*
X48143475Y1593368D01*
X48305990Y1836589D01*
X48417932Y2106842D01*
X48475000Y2393740D01*
X48475000Y2686260D01*
X48417932Y2973158D01*
X48305990Y3243411D01*
X48143475Y3486632D01*
X47936632Y3693475D01*
X47762240Y3810000D01*
X47936632Y3926525D01*
X48143475Y4133368D01*
X48305990Y4376589D01*
X48417932Y4646842D01*
X48475000Y4933740D01*
X48475000Y5226260D01*
X65825000Y5226260D01*
X65825000Y4933740D01*
X65882068Y4646842D01*
X65994010Y4376589D01*
X66156525Y4133368D01*
X66363368Y3926525D01*
X66537760Y3810000D01*
X66363368Y3693475D01*
X66156525Y3486632D01*
X65994010Y3243411D01*
X65882068Y2973158D01*
X65825000Y2686260D01*
X65825000Y2393740D01*
X65882068Y2106842D01*
X65994010Y1836589D01*
X66156525Y1593368D01*
X66363368Y1386525D01*
X66606589Y1224010D01*
X66876842Y1112068D01*
X67163740Y1055000D01*
X67456260Y1055000D01*
X67743158Y1112068D01*
X68013411Y1224010D01*
X68256632Y1386525D01*
X68463475Y1593368D01*
X68625990Y1836589D01*
X68737932Y2106842D01*
X68795000Y2393740D01*
X68795000Y2686260D01*
X68737932Y2973158D01*
X68625990Y3243411D01*
X68463475Y3486632D01*
X68256632Y3693475D01*
X68082240Y3810000D01*
X68256632Y3926525D01*
X68463475Y4133368D01*
X68625990Y4376589D01*
X68737932Y4646842D01*
X68795000Y4933740D01*
X68795000Y5220128D01*
X71765000Y5220128D01*
X71765000Y4779872D01*
X71850890Y4348075D01*
X72019369Y3941331D01*
X72263962Y3575271D01*
X72575271Y3263962D01*
X72941331Y3019369D01*
X73348075Y2850890D01*
X73779872Y2765000D01*
X74220128Y2765000D01*
X74651925Y2850890D01*
X75058669Y3019369D01*
X75424729Y3263962D01*
X75736038Y3575271D01*
X75980631Y3941331D01*
X76149110Y4348075D01*
X76235000Y4779872D01*
X76235000Y5220128D01*
X76149110Y5651925D01*
X75980631Y6058669D01*
X75736038Y6424729D01*
X75424729Y6736038D01*
X75058669Y6980631D01*
X74651925Y7149110D01*
X74220128Y7235000D01*
X73779872Y7235000D01*
X73348075Y7149110D01*
X72941331Y6980631D01*
X72575271Y6736038D01*
X72263962Y6424729D01*
X72019369Y6058669D01*
X71850890Y5651925D01*
X71765000Y5220128D01*
X68795000Y5220128D01*
X68795000Y5226260D01*
X68737932Y5513158D01*
X68625990Y5783411D01*
X68463475Y6026632D01*
X68256632Y6233475D01*
X68013411Y6395990D01*
X67743158Y6507932D01*
X67456260Y6565000D01*
X67163740Y6565000D01*
X66876842Y6507932D01*
X66606589Y6395990D01*
X66363368Y6233475D01*
X66156525Y6026632D01*
X65994010Y5783411D01*
X65882068Y5513158D01*
X65825000Y5226260D01*
X48475000Y5226260D01*
X48417932Y5513158D01*
X48305990Y5783411D01*
X48143475Y6026632D01*
X47936632Y6233475D01*
X47693411Y6395990D01*
X47423158Y6507932D01*
X47136260Y6565000D01*
X46843740Y6565000D01*
X46556842Y6507932D01*
X46286589Y6395990D01*
X46043368Y6233475D01*
X45836525Y6026632D01*
X45674010Y5783411D01*
X45562068Y5513158D01*
X45505000Y5226260D01*
X35180072Y5226260D01*
X35180072Y6718000D01*
X35167812Y6842482D01*
X35131502Y6962180D01*
X35072537Y7072494D01*
X34993185Y7169185D01*
X34896494Y7248537D01*
X34786180Y7307502D01*
X34666482Y7343812D01*
X34658039Y7344643D01*
X34856637Y7543241D01*
X35013680Y7778273D01*
X35121853Y8039426D01*
X35177000Y8316665D01*
X35177000Y8599335D01*
X35121853Y8876574D01*
X35013680Y9137727D01*
X34856637Y9372759D01*
X34656759Y9572637D01*
X34424241Y9728000D01*
X34656759Y9883363D01*
X34856637Y10083241D01*
X35013680Y10318273D01*
X35121853Y10579426D01*
X35177000Y10856665D01*
X35177000Y11139335D01*
X35121853Y11416574D01*
X35013680Y11677727D01*
X34856637Y11912759D01*
X34656759Y12112637D01*
X34424241Y12268000D01*
X34656759Y12423363D01*
X34856637Y12623241D01*
X35013680Y12858273D01*
X35121853Y13119426D01*
X35177000Y13396665D01*
X35177000Y13679335D01*
X35121853Y13956574D01*
X35013680Y14217727D01*
X34856637Y14452759D01*
X34656759Y14652637D01*
X34424241Y14808000D01*
X34656759Y14963363D01*
X34856637Y15163241D01*
X35013680Y15398273D01*
X35121853Y15659426D01*
X35177000Y15936665D01*
X35177000Y16219335D01*
X35121853Y16496574D01*
X35013680Y16757727D01*
X34856637Y16992759D01*
X34656759Y17192637D01*
X34466632Y17319676D01*
X34466365Y17322385D01*
X34452805Y17367086D01*
X34656759Y17503363D01*
X34856637Y17703241D01*
X34976748Y17883000D01*
X46878895Y17883000D01*
X46915000Y17879444D01*
X46951105Y17883000D01*
X47059085Y17893635D01*
X47197633Y17935663D01*
X47325320Y18003913D01*
X47437238Y18095762D01*
X47460259Y18123813D01*
X58706415Y29369968D01*
X58923080Y29208359D01*
X59185901Y29083175D01*
X59333110Y29038524D01*
X59563000Y29159845D01*
X59563000Y30353000D01*
X59543000Y30353000D01*
X59543000Y30607000D01*
X59563000Y30607000D01*
X59563000Y31800155D01*
X59817000Y31800155D01*
X59817000Y30607000D01*
X59837000Y30607000D01*
X59837000Y30353000D01*
X59817000Y30353000D01*
X59817000Y29159845D01*
X60046890Y29038524D01*
X60194099Y29083175D01*
X60456920Y29208359D01*
X60690269Y29382412D01*
X60885178Y29598645D01*
X60954805Y29715534D01*
X61076525Y29533368D01*
X61283368Y29326525D01*
X61526589Y29164010D01*
X61796842Y29052068D01*
X62083740Y28995000D01*
X62376260Y28995000D01*
X62663158Y29052068D01*
X62933411Y29164010D01*
X63176632Y29326525D01*
X63383475Y29533368D01*
X63500000Y29707760D01*
X63616525Y29533368D01*
X63823368Y29326525D01*
X64066589Y29164010D01*
X64336842Y29052068D01*
X64623740Y28995000D01*
X64916260Y28995000D01*
X65203158Y29052068D01*
X65473411Y29164010D01*
X65716632Y29326525D01*
X65848487Y29458380D01*
X65870498Y29385820D01*
X65929463Y29275506D01*
X66008815Y29178815D01*
X66105506Y29099463D01*
X66215820Y29040498D01*
X66335518Y29004188D01*
X66460000Y28991928D01*
X68160000Y28991928D01*
X68284482Y29004188D01*
X68404180Y29040498D01*
X68514494Y29099463D01*
X68611185Y29178815D01*
X68690537Y29275506D01*
X68749502Y29385820D01*
X68785812Y29505518D01*
X68798072Y29630000D01*
X68798072Y31330000D01*
X68785812Y31454482D01*
X68749502Y31574180D01*
X68690537Y31684494D01*
X68611185Y31781185D01*
X68514494Y31860537D01*
X68404180Y31919502D01*
X68284482Y31955812D01*
X68160000Y31968072D01*
X66460000Y31968072D01*
X66335518Y31955812D01*
X66215820Y31919502D01*
X66105506Y31860537D01*
X66008815Y31781185D01*
X65929463Y31684494D01*
X65870498Y31574180D01*
X65848487Y31501620D01*
X65716632Y31633475D01*
X65473411Y31795990D01*
X65203158Y31907932D01*
X64916260Y31965000D01*
X64623740Y31965000D01*
X64336842Y31907932D01*
X64066589Y31795990D01*
X63823368Y31633475D01*
X63616525Y31426632D01*
X63500000Y31252240D01*
X63383475Y31426632D01*
X63176632Y31633475D01*
X62933411Y31795990D01*
X62663158Y31907932D01*
X62376260Y31965000D01*
X62083740Y31965000D01*
X61796842Y31907932D01*
X61526589Y31795990D01*
X61283368Y31633475D01*
X61076525Y31426632D01*
X60954805Y31244466D01*
X60885178Y31361355D01*
X60690269Y31577588D01*
X60456920Y31751641D01*
X60194099Y31876825D01*
X60046890Y31921476D01*
X59817000Y31800155D01*
X59563000Y31800155D01*
X59333110Y31921476D01*
X59185901Y31876825D01*
X59155000Y31862107D01*
X59155000Y33355354D01*
X62447501Y36647854D01*
X62525518Y36624188D01*
X62650000Y36611928D01*
X63214250Y36615000D01*
X63373000Y36773750D01*
X63373000Y37973000D01*
X63627000Y37973000D01*
X63627000Y36773750D01*
X63785750Y36615000D01*
X64350000Y36611928D01*
X64474482Y36624188D01*
X64594180Y36660498D01*
X64704494Y36719463D01*
X64801185Y36798815D01*
X64880537Y36895506D01*
X64939502Y37005820D01*
X64975812Y37125518D01*
X64988072Y37250000D01*
X64985000Y37814250D01*
X64826250Y37973000D01*
X63627000Y37973000D01*
X63373000Y37973000D01*
X63353000Y37973000D01*
X63353000Y38227000D01*
X63373000Y38227000D01*
X63373000Y39426250D01*
X63627000Y39426250D01*
X63627000Y38227000D01*
X64826250Y38227000D01*
X64985000Y38385750D01*
X64988072Y38950000D01*
X64975812Y39074482D01*
X64939502Y39194180D01*
X64880537Y39304494D01*
X64801185Y39401185D01*
X64704494Y39480537D01*
X64594180Y39539502D01*
X64474482Y39575812D01*
X64350000Y39588072D01*
X63785750Y39585000D01*
X63627000Y39426250D01*
X63373000Y39426250D01*
X63214250Y39585000D01*
X62872100Y39586863D01*
X62872100Y41881506D01*
X62875655Y41917601D01*
X62872100Y41953696D01*
X62872100Y41953705D01*
X62861465Y42061685D01*
X62857397Y42075096D01*
X62979608Y42175392D01*
X63158932Y42393899D01*
X63230000Y42526858D01*
X63301068Y42393899D01*
X63480393Y42175392D01*
X63698900Y41996068D01*
X63948193Y41862818D01*
X64218692Y41780764D01*
X64500000Y41753057D01*
X64781309Y41780764D01*
X65051808Y41862818D01*
X65301101Y41996068D01*
X65519608Y42175392D01*
X65698932Y42393899D01*
X65832182Y42643192D01*
X65914236Y42913691D01*
X65935000Y43124509D01*
X65935000Y44065492D01*
X65914236Y44276309D01*
X65832182Y44546808D01*
X65698932Y44796101D01*
X65519607Y45014608D01*
X65301100Y45193932D01*
X65051807Y45327182D01*
X64781308Y45409236D01*
X64500000Y45436943D01*
X64218691Y45409236D01*
X63948192Y45327182D01*
X63698899Y45193932D01*
X63480392Y45014607D01*
X63301068Y44796100D01*
X63230000Y44663142D01*
X63158932Y44796101D01*
X62979607Y45014608D01*
X62761100Y45193932D01*
X62511807Y45327182D01*
X62241308Y45409236D01*
X61960000Y45436943D01*
X61678691Y45409236D01*
X61525000Y45362615D01*
X61525000Y49627298D01*
X67496903Y49627298D01*
X67568486Y49383329D01*
X67823996Y49262429D01*
X68098184Y49193700D01*
X68380512Y49179783D01*
X68660130Y49221213D01*
X68926292Y49316397D01*
X69051514Y49383329D01*
X69123097Y49627298D01*
X68310000Y50440395D01*
X67496903Y49627298D01*
X61525000Y49627298D01*
X61525000Y50549488D01*
X66869783Y50549488D01*
X66911213Y50269870D01*
X67006397Y50003708D01*
X67073329Y49878486D01*
X67317298Y49806903D01*
X68130395Y50620000D01*
X68489605Y50620000D01*
X69302702Y49806903D01*
X69546671Y49878486D01*
X69667571Y50133996D01*
X69736300Y50408184D01*
X69750217Y50690512D01*
X69708787Y50970130D01*
X69613603Y51236292D01*
X69546671Y51361514D01*
X69302702Y51433097D01*
X68489605Y50620000D01*
X68130395Y50620000D01*
X67317298Y51433097D01*
X67073329Y51361514D01*
X66952429Y51106004D01*
X66883700Y50831816D01*
X66869783Y50549488D01*
X61525000Y50549488D01*
X61525000Y52285000D01*
X67142070Y52285000D01*
X67195363Y52205241D01*
X67395241Y52005363D01*
X67595869Y51871308D01*
X67568486Y51856671D01*
X67496903Y51612702D01*
X68310000Y50799605D01*
X69123097Y51612702D01*
X69051514Y51856671D01*
X69022659Y51870324D01*
X69224759Y52005363D01*
X69424637Y52205241D01*
X69581680Y52440273D01*
X69689853Y52701426D01*
X69745000Y52978665D01*
X69745000Y53261335D01*
X69689853Y53538574D01*
X69666360Y53595292D01*
X70389828Y54318760D01*
X70421691Y54344909D01*
X70526036Y54472054D01*
X70603572Y54617113D01*
X70651318Y54774511D01*
X70663400Y54897181D01*
X70663400Y54897182D01*
X70667440Y54938199D01*
X70663400Y54979218D01*
X70663400Y61978963D01*
X70718182Y61955633D01*
X70800961Y61938096D01*
X71023000Y62060085D01*
X71023000Y63603000D01*
X71277000Y63603000D01*
X71277000Y62060085D01*
X71499039Y61938096D01*
X71581818Y61955633D01*
X71841646Y62066285D01*
X72074895Y62225500D01*
X72272601Y62427161D01*
X72427166Y62663517D01*
X72532650Y62925486D01*
X72585000Y63203000D01*
X72585000Y63603000D01*
X71277000Y63603000D01*
X71023000Y63603000D01*
X71003000Y63603000D01*
X71003000Y63857000D01*
X71023000Y63857000D01*
X71023000Y65399915D01*
X71277000Y65399915D01*
X71277000Y63857000D01*
X72585000Y63857000D01*
X72585000Y64257000D01*
X72532650Y64534514D01*
X72427166Y64796483D01*
X72272601Y65032839D01*
X72074895Y65234500D01*
X71841646Y65393715D01*
X71581818Y65504367D01*
X71499039Y65521904D01*
X71277000Y65399915D01*
X71023000Y65399915D01*
X70800961Y65521904D01*
X70718182Y65504367D01*
X70527999Y65423374D01*
X70526036Y65427046D01*
X70421691Y65554191D01*
X70389827Y65580341D01*
X65635000Y70335167D01*
X65635000Y77202385D01*
X65788692Y77155764D01*
X66070000Y77128057D01*
X66351309Y77155764D01*
X66621808Y77237818D01*
X66871101Y77371068D01*
X67089608Y77550392D01*
X67268932Y77768899D01*
X67340000Y77901858D01*
X67411068Y77768899D01*
X67590393Y77550392D01*
X67808900Y77371068D01*
X68058193Y77237818D01*
X68328692Y77155764D01*
X68610000Y77128057D01*
X68891309Y77155764D01*
X69161808Y77237818D01*
X69411101Y77371068D01*
X69629608Y77550392D01*
X69808932Y77768899D01*
X69880000Y77901858D01*
X69951068Y77768899D01*
X70130393Y77550392D01*
X70348900Y77371068D01*
X70598193Y77237818D01*
X70868692Y77155764D01*
X71150000Y77128057D01*
X71431309Y77155764D01*
X71701808Y77237818D01*
X71951101Y77371068D01*
X72169608Y77550392D01*
X72348932Y77768899D01*
X72482182Y78018192D01*
X72564236Y78288691D01*
X72585000Y78499509D01*
X72585000Y79440492D01*
X72564236Y79651309D01*
X72482182Y79921808D01*
X72348932Y80171101D01*
X72169607Y80389608D01*
X71951100Y80568932D01*
X71701807Y80702182D01*
X71431308Y80784236D01*
X71150000Y80811943D01*
X70868691Y80784236D01*
X70598192Y80702182D01*
X70348899Y80568932D01*
X70130392Y80389607D01*
X69951068Y80171100D01*
X69880000Y80038142D01*
X69808932Y80171101D01*
X69629607Y80389608D01*
X69411100Y80568932D01*
X69161807Y80702182D01*
X68891308Y80784236D01*
X68610000Y80811943D01*
X68328691Y80784236D01*
X68058192Y80702182D01*
X67808899Y80568932D01*
X67590392Y80389607D01*
X67411068Y80171100D01*
X67340000Y80038142D01*
X67268932Y80171101D01*
X67089607Y80389608D01*
X66871100Y80568932D01*
X66805000Y80604263D01*
X66805000Y80929147D01*
X66854277Y81002895D01*
X66920990Y81163955D01*
X66955000Y81334935D01*
X66955000Y81509265D01*
X66920990Y81680245D01*
X66854277Y81841305D01*
X66757424Y81986255D01*
X66634155Y82109524D01*
X66489205Y82206377D01*
X66328145Y82273090D01*
X66157165Y82307100D01*
X65982835Y82307100D01*
X65811855Y82273090D01*
X65650795Y82206377D01*
X65505845Y82109524D01*
X65382576Y81986255D01*
X65285723Y81841305D01*
X65219010Y81680245D01*
X65185000Y81509265D01*
X65185000Y81435568D01*
X65010512Y81610056D01*
X65021185Y81618815D01*
X65100537Y81715506D01*
X65159502Y81825820D01*
X65195812Y81945518D01*
X65208072Y82070000D01*
X65208072Y83220128D01*
X71765000Y83220128D01*
X71765000Y82779872D01*
X71850890Y82348075D01*
X72019369Y81941331D01*
X72263962Y81575271D01*
X72575271Y81263962D01*
X72941331Y81019369D01*
X73348075Y80850890D01*
X73779872Y80765000D01*
X74220128Y80765000D01*
X74651925Y80850890D01*
X75058669Y81019369D01*
X75424729Y81263962D01*
X75736038Y81575271D01*
X75980631Y81941331D01*
X76149110Y82348075D01*
X76235000Y82779872D01*
X76235000Y83220128D01*
X76149110Y83651925D01*
X75980631Y84058669D01*
X75736038Y84424729D01*
X75424729Y84736038D01*
X75058669Y84980631D01*
X74651925Y85149110D01*
X74220128Y85235000D01*
X73779872Y85235000D01*
X73348075Y85149110D01*
X72941331Y84980631D01*
X72575271Y84736038D01*
X72263962Y84424729D01*
X72019369Y84058669D01*
X71850890Y83651925D01*
X71765000Y83220128D01*
X65208072Y83220128D01*
X65208072Y83670000D01*
X65195812Y83794482D01*
X65159502Y83914180D01*
X65100537Y84024494D01*
X65021185Y84121185D01*
X64924494Y84200537D01*
X64814180Y84259502D01*
X64694482Y84295812D01*
X64570000Y84308072D01*
X64562785Y84308072D01*
X64583097Y84377298D01*
X63770000Y85190395D01*
X63755858Y85176252D01*
X63576253Y85355857D01*
X63590395Y85370000D01*
X63949605Y85370000D01*
X64762702Y84556903D01*
X65006671Y84628486D01*
X65127571Y84883996D01*
X65196300Y85158184D01*
X65210217Y85440512D01*
X65168787Y85720130D01*
X65073603Y85986292D01*
X65006671Y86111514D01*
X64762702Y86183097D01*
X63949605Y85370000D01*
X63590395Y85370000D01*
X62777298Y86183097D01*
X62533329Y86111514D01*
X62465109Y85967338D01*
X62069745Y86362702D01*
X62956903Y86362702D01*
X63770000Y85549605D01*
X64583097Y86362702D01*
X64511514Y86606671D01*
X64256004Y86727571D01*
X63981816Y86796300D01*
X63699488Y86810217D01*
X63419870Y86768787D01*
X63153708Y86673603D01*
X63028486Y86606671D01*
X62956903Y86362702D01*
X62069745Y86362702D01*
X59559446Y88873000D01*
X71998033Y88873000D01*
X72048052Y88812052D01*
X72148550Y88729575D01*
X72263207Y88668290D01*
X72387617Y88630550D01*
X72484581Y88621000D01*
X72517000Y88617807D01*
X72549419Y88621000D01*
X78334045Y88621000D01*
X78339956Y660000D01*
X660000Y660000D01*
X660000Y5220128D01*
X2765000Y5220128D01*
X2765000Y4779872D01*
X2850890Y4348075D01*
X3019369Y3941331D01*
X3263962Y3575271D01*
X3575271Y3263962D01*
X3941331Y3019369D01*
X4348075Y2850890D01*
X4779872Y2765000D01*
X5220128Y2765000D01*
X5651925Y2850890D01*
X6058669Y3019369D01*
X6424729Y3263962D01*
X6736038Y3575271D01*
X6980631Y3941331D01*
X7149110Y4348075D01*
X7235000Y4779872D01*
X7235000Y5220128D01*
X7149110Y5651925D01*
X6980631Y6058669D01*
X6980186Y6059335D01*
X17067000Y6059335D01*
X17067000Y5776665D01*
X17122147Y5499426D01*
X17230320Y5238273D01*
X17387363Y5003241D01*
X17587241Y4803363D01*
X17822273Y4646320D01*
X18083426Y4538147D01*
X18360665Y4483000D01*
X18643335Y4483000D01*
X18920574Y4538147D01*
X19181727Y4646320D01*
X19416759Y4803363D01*
X19616637Y5003241D01*
X19773680Y5238273D01*
X19881853Y5499426D01*
X19937000Y5776665D01*
X19937000Y6059335D01*
X19881853Y6336574D01*
X19773680Y6597727D01*
X19616637Y6832759D01*
X19416759Y7032637D01*
X19181727Y7189680D01*
X19171135Y7194067D01*
X19357131Y7305615D01*
X19565519Y7494586D01*
X19733037Y7720580D01*
X19853246Y7974913D01*
X19893904Y8108961D01*
X19771915Y8331000D01*
X18629000Y8331000D01*
X18629000Y8311000D01*
X18375000Y8311000D01*
X18375000Y8331000D01*
X17232085Y8331000D01*
X17110096Y8108961D01*
X17150754Y7974913D01*
X17270963Y7720580D01*
X17438481Y7494586D01*
X17646869Y7305615D01*
X17832865Y7194067D01*
X17822273Y7189680D01*
X17587241Y7032637D01*
X17387363Y6832759D01*
X17230320Y6597727D01*
X17122147Y6336574D01*
X17067000Y6059335D01*
X6980186Y6059335D01*
X6736038Y6424729D01*
X6424729Y6736038D01*
X6058669Y6980631D01*
X5651925Y7149110D01*
X5220128Y7235000D01*
X4779872Y7235000D01*
X4348075Y7149110D01*
X3941331Y6980631D01*
X3575271Y6736038D01*
X3263962Y6424729D01*
X3019369Y6058669D01*
X2850890Y5651925D01*
X2765000Y5220128D01*
X660000Y5220128D01*
X660000Y65404298D01*
X7505903Y65404298D01*
X7577486Y65160329D01*
X7832996Y65039429D01*
X8107184Y64970700D01*
X8389512Y64956783D01*
X8669130Y64998213D01*
X8935292Y65093397D01*
X9060514Y65160329D01*
X9132097Y65404298D01*
X8319000Y66217395D01*
X7505903Y65404298D01*
X660000Y65404298D01*
X660000Y66326488D01*
X6878783Y66326488D01*
X6920213Y66046870D01*
X7015397Y65780708D01*
X7082329Y65655486D01*
X7326298Y65583903D01*
X8139395Y66397000D01*
X8498605Y66397000D01*
X9311702Y65583903D01*
X9555671Y65655486D01*
X9676571Y65910996D01*
X9745300Y66185184D01*
X9759217Y66467512D01*
X9717787Y66747130D01*
X9622603Y67013292D01*
X9555671Y67138514D01*
X9311702Y67210097D01*
X8498605Y66397000D01*
X8139395Y66397000D01*
X7326298Y67210097D01*
X7082329Y67138514D01*
X6961429Y66883004D01*
X6892700Y66608816D01*
X6878783Y66326488D01*
X660000Y66326488D01*
X660000Y78819488D01*
X9634783Y78819488D01*
X9676213Y78539870D01*
X9771397Y78273708D01*
X9838329Y78148486D01*
X10082298Y78076903D01*
X10895395Y78890000D01*
X10082298Y79703097D01*
X9838329Y79631514D01*
X9717429Y79376004D01*
X9648700Y79101816D01*
X9634783Y78819488D01*
X660000Y78819488D01*
X660000Y83220128D01*
X2765000Y83220128D01*
X2765000Y82779872D01*
X2850890Y82348075D01*
X3019369Y81941331D01*
X3263962Y81575271D01*
X3575271Y81263962D01*
X3941331Y81019369D01*
X4348075Y80850890D01*
X4779872Y80765000D01*
X5220128Y80765000D01*
X5651925Y80850890D01*
X6058669Y81019369D01*
X6424729Y81263962D01*
X6736038Y81575271D01*
X6980631Y81941331D01*
X7149110Y82348075D01*
X7235000Y82779872D01*
X7235000Y83220128D01*
X7149110Y83651925D01*
X6980631Y84058669D01*
X6736038Y84424729D01*
X6424729Y84736038D01*
X6058669Y84980631D01*
X5651925Y85149110D01*
X5220128Y85235000D01*
X4779872Y85235000D01*
X4348075Y85149110D01*
X3941331Y84980631D01*
X3575271Y84736038D01*
X3263962Y84424729D01*
X3019369Y84058669D01*
X2850890Y83651925D01*
X2765000Y83220128D01*
X660000Y83220128D01*
X660000Y88621000D01*
X6444581Y88621000D01*
X6477000Y88617807D01*
X6509419Y88621000D01*
X6606383Y88630550D01*
X6730793Y88668290D01*
X6845450Y88729575D01*
X6945948Y88812052D01*
X6995967Y88873000D01*
X8501843Y88873000D01*
X8505808Y88869746D01*
G04 #@! TA.AperFunction,Conductor*
D22*
G36*
X8505808Y88869746D02*
G01*
X8555041Y88820513D01*
X8578062Y88792462D01*
X8689980Y88700613D01*
X8817667Y88632363D01*
X8956215Y88590335D01*
X9064195Y88579700D01*
X9100300Y88576144D01*
X9136405Y88579700D01*
X16178054Y88579700D01*
X18742685Y86015069D01*
X18646075Y86044375D01*
X18538095Y86055010D01*
X18501990Y86058566D01*
X18465885Y86055010D01*
X17042455Y86055010D01*
X17006360Y86058565D01*
X16970265Y86055010D01*
X16970256Y86055010D01*
X16862276Y86044375D01*
X16723728Y86002347D01*
X16596041Y85934097D01*
X16484123Y85842248D01*
X16461107Y85814203D01*
X15911347Y85264442D01*
X15723100Y85418932D01*
X15473807Y85552182D01*
X15203308Y85634236D01*
X14922000Y85661943D01*
X14640691Y85634236D01*
X14370192Y85552182D01*
X14120899Y85418932D01*
X13902392Y85239607D01*
X13723068Y85021100D01*
X13589818Y84771807D01*
X13554385Y84655000D01*
X13546018Y84655000D01*
X13505000Y84659040D01*
X13341311Y84642918D01*
X13183913Y84595172D01*
X13038854Y84517636D01*
X12945189Y84440767D01*
X12911709Y84413291D01*
X12885563Y84381432D01*
X11310418Y82806286D01*
X11216335Y82825000D01*
X10933665Y82825000D01*
X10656426Y82769853D01*
X10395273Y82661680D01*
X10160241Y82504637D01*
X9960363Y82304759D01*
X9803320Y82069727D01*
X9695147Y81808574D01*
X9640000Y81531335D01*
X9640000Y81248665D01*
X9695147Y80971426D01*
X9803320Y80710273D01*
X9960363Y80475241D01*
X10160241Y80275363D01*
X10360869Y80141308D01*
X10333486Y80126671D01*
X10261903Y79882702D01*
X11075000Y79069605D01*
X11089143Y79083747D01*
X11268748Y78904142D01*
X11254605Y78890000D01*
X11268748Y78875857D01*
X11089143Y78696252D01*
X11075000Y78710395D01*
X10261903Y77897298D01*
X10333486Y77653329D01*
X10588996Y77532429D01*
X10863184Y77463700D01*
X11145512Y77449783D01*
X11425130Y77491213D01*
X11462201Y77504470D01*
X11462200Y73532003D01*
X11426248Y73488195D01*
X11367364Y73416445D01*
X11289828Y73271386D01*
X11242082Y73113988D01*
X11225960Y72950300D01*
X11228922Y72920227D01*
X11045392Y72769607D01*
X10866068Y72551100D01*
X10732818Y72301807D01*
X10696351Y72181589D01*
X10608311Y72172918D01*
X10450913Y72125172D01*
X10305854Y72047636D01*
X10236581Y71990785D01*
X10178709Y71943291D01*
X10152563Y71911432D01*
X8554418Y70313286D01*
X8460335Y70332000D01*
X8177665Y70332000D01*
X7900426Y70276853D01*
X7639273Y70168680D01*
X7404241Y70011637D01*
X7204363Y69811759D01*
X7047320Y69576727D01*
X6939147Y69315574D01*
X6884000Y69038335D01*
X6884000Y68755665D01*
X6939147Y68478426D01*
X7047320Y68217273D01*
X7204363Y67982241D01*
X7404241Y67782363D01*
X7604869Y67648308D01*
X7577486Y67633671D01*
X7505903Y67389702D01*
X8319000Y66576605D01*
X9132097Y67389702D01*
X9060514Y67633671D01*
X9031659Y67647324D01*
X9233759Y67782363D01*
X9433637Y67982241D01*
X9590680Y68217273D01*
X9698853Y68478426D01*
X9754000Y68755665D01*
X9754000Y69038335D01*
X9735286Y69132418D01*
X10826254Y70223386D01*
X10866068Y70148899D01*
X11045393Y69930392D01*
X11263900Y69751068D01*
X11513193Y69617818D01*
X11783692Y69535764D01*
X12065000Y69508057D01*
X12346309Y69535764D01*
X12616808Y69617818D01*
X12866101Y69751068D01*
X13084608Y69930392D01*
X13263932Y70148899D01*
X13335000Y70281858D01*
X13406068Y70148899D01*
X13585393Y69930392D01*
X13803900Y69751068D01*
X14053193Y69617818D01*
X14323692Y69535764D01*
X14605000Y69508057D01*
X14886309Y69535764D01*
X15156808Y69617818D01*
X15406101Y69751068D01*
X15624608Y69930392D01*
X15803932Y70148899D01*
X15875000Y70281858D01*
X15946068Y70148899D01*
X16125393Y69930392D01*
X16343900Y69751068D01*
X16593193Y69617818D01*
X16863692Y69535764D01*
X17145000Y69508057D01*
X17426309Y69535764D01*
X17510011Y69561154D01*
X17510011Y67291105D01*
X17506454Y67254990D01*
X17520645Y67110905D01*
X17550770Y67011600D01*
X17562674Y66972357D01*
X17630924Y66844670D01*
X17722773Y66732752D01*
X17750818Y66709736D01*
X19045333Y65415220D01*
X18883899Y65328932D01*
X18665392Y65149607D01*
X18486068Y64931100D01*
X18415000Y64798142D01*
X18343932Y64931101D01*
X18164607Y65149608D01*
X17946100Y65328932D01*
X17696807Y65462182D01*
X17426308Y65544236D01*
X17145000Y65571943D01*
X16863691Y65544236D01*
X16593192Y65462182D01*
X16343899Y65328932D01*
X16125392Y65149607D01*
X15946068Y64931100D01*
X15875000Y64798142D01*
X15803932Y64931101D01*
X15624607Y65149608D01*
X15406100Y65328932D01*
X15156807Y65462182D01*
X14886308Y65544236D01*
X14605000Y65571943D01*
X14323691Y65544236D01*
X14053192Y65462182D01*
X13803899Y65328932D01*
X13585392Y65149607D01*
X13492581Y65036517D01*
X13490812Y65054482D01*
X13454502Y65174180D01*
X13395537Y65284494D01*
X13316185Y65381185D01*
X13219494Y65460537D01*
X13109180Y65519502D01*
X12989482Y65555812D01*
X12865000Y65568072D01*
X11265000Y65568072D01*
X11140518Y65555812D01*
X11020820Y65519502D01*
X10910506Y65460537D01*
X10813815Y65381185D01*
X10734463Y65284494D01*
X10675498Y65174180D01*
X10639188Y65054482D01*
X10626928Y64930000D01*
X10626928Y62530000D01*
X10639188Y62405518D01*
X10675498Y62285820D01*
X10734463Y62175506D01*
X10813815Y62078815D01*
X10910506Y61999463D01*
X11020820Y61940498D01*
X11140518Y61904188D01*
X11265000Y61891928D01*
X12865000Y61891928D01*
X12989482Y61904188D01*
X13109180Y61940498D01*
X13219494Y61999463D01*
X13316185Y62078815D01*
X13395537Y62175506D01*
X13454502Y62285820D01*
X13490812Y62405518D01*
X13492581Y62423483D01*
X13585393Y62310392D01*
X13803900Y62131068D01*
X14053193Y61997818D01*
X14323692Y61915764D01*
X14605000Y61888057D01*
X14886309Y61915764D01*
X15156808Y61997818D01*
X15406101Y62131068D01*
X15624608Y62310392D01*
X15803932Y62528899D01*
X15875000Y62661858D01*
X15946068Y62528899D01*
X16125393Y62310392D01*
X16343900Y62131068D01*
X16593193Y61997818D01*
X16863692Y61915764D01*
X17145000Y61888057D01*
X17426309Y61915764D01*
X17696808Y61997818D01*
X17946101Y62131068D01*
X18164608Y62310392D01*
X18343932Y62528899D01*
X18415000Y62661858D01*
X18486068Y62528899D01*
X18665393Y62310392D01*
X18883900Y62131068D01*
X19133193Y61997818D01*
X19403692Y61915764D01*
X19685000Y61888057D01*
X19966309Y61915764D01*
X20236808Y61997818D01*
X20486101Y62131068D01*
X20674347Y62285558D01*
X22024990Y60934914D01*
X22024990Y60485304D01*
X21871807Y60567182D01*
X21601308Y60649236D01*
X21320000Y60676943D01*
X21038691Y60649236D01*
X20768192Y60567182D01*
X20518899Y60433932D01*
X20300392Y60254607D01*
X20121068Y60036100D01*
X20050000Y59903142D01*
X19978932Y60036101D01*
X19799607Y60254608D01*
X19581100Y60433932D01*
X19331807Y60567182D01*
X19061308Y60649236D01*
X18780000Y60676943D01*
X18498691Y60649236D01*
X18228192Y60567182D01*
X17978899Y60433932D01*
X17760392Y60254607D01*
X17581068Y60036100D01*
X17510000Y59903142D01*
X17438932Y60036101D01*
X17259607Y60254608D01*
X17041100Y60433932D01*
X16791807Y60567182D01*
X16521308Y60649236D01*
X16240000Y60676943D01*
X15958691Y60649236D01*
X15688192Y60567182D01*
X15438899Y60433932D01*
X15220392Y60254607D01*
X15041068Y60036100D01*
X14907818Y59786807D01*
X14825764Y59516308D01*
X14805000Y59305491D01*
X14805000Y58364508D01*
X14825764Y58153691D01*
X14907818Y57883192D01*
X15041068Y57633899D01*
X15220393Y57415392D01*
X15438900Y57236068D01*
X15688193Y57102818D01*
X15958692Y57020764D01*
X16240000Y56993057D01*
X16521309Y57020764D01*
X16791808Y57102818D01*
X17041101Y57236068D01*
X17259608Y57415392D01*
X17438932Y57633899D01*
X17510000Y57766858D01*
X17581068Y57633899D01*
X17760393Y57415392D01*
X17978900Y57236068D01*
X18228193Y57102818D01*
X18498692Y57020764D01*
X18780000Y56993057D01*
X19061309Y57020764D01*
X19331808Y57102818D01*
X19581101Y57236068D01*
X19799608Y57415392D01*
X19978932Y57633899D01*
X20050000Y57766858D01*
X20121068Y57633899D01*
X20300393Y57415392D01*
X20518900Y57236068D01*
X20768193Y57102818D01*
X21038692Y57020764D01*
X21320000Y56993057D01*
X21601309Y57020764D01*
X21871808Y57102818D01*
X22024990Y57184696D01*
X22024990Y45245304D01*
X21871807Y45327182D01*
X21601308Y45409236D01*
X21320000Y45436943D01*
X21038691Y45409236D01*
X20768192Y45327182D01*
X20518899Y45193932D01*
X20300392Y45014607D01*
X20121068Y44796100D01*
X20050000Y44663142D01*
X19978932Y44796101D01*
X19799607Y45014608D01*
X19581100Y45193932D01*
X19331807Y45327182D01*
X19061308Y45409236D01*
X18780000Y45436943D01*
X18498691Y45409236D01*
X18228192Y45327182D01*
X17978899Y45193932D01*
X17760392Y45014607D01*
X17667581Y44901517D01*
X17665812Y44919482D01*
X17629502Y45039180D01*
X17570537Y45149494D01*
X17491185Y45246185D01*
X17394494Y45325537D01*
X17284180Y45384502D01*
X17164482Y45420812D01*
X17040000Y45433072D01*
X15440000Y45433072D01*
X15315518Y45420812D01*
X15195820Y45384502D01*
X15085506Y45325537D01*
X14988815Y45246185D01*
X14909463Y45149494D01*
X14850498Y45039180D01*
X14814188Y44919482D01*
X14801928Y44795000D01*
X14801928Y42395000D01*
X14814188Y42270518D01*
X14850498Y42150820D01*
X14909463Y42040506D01*
X14988815Y41943815D01*
X15085506Y41864463D01*
X15195820Y41805498D01*
X15315518Y41769188D01*
X15440000Y41756928D01*
X15505001Y41756928D01*
X15505000Y21865605D01*
X15501444Y21829500D01*
X15505000Y21793396D01*
X15515635Y21685416D01*
X15557663Y21546868D01*
X15625913Y21419181D01*
X15717762Y21307263D01*
X15745808Y21284246D01*
X17442329Y19587725D01*
X17387363Y19532759D01*
X17230320Y19297727D01*
X17122147Y19036574D01*
X17067000Y18759335D01*
X17067000Y18476665D01*
X17122147Y18199426D01*
X17230320Y17938273D01*
X17387363Y17703241D01*
X17587241Y17503363D01*
X17819759Y17348000D01*
X17587241Y17192637D01*
X17387363Y16992759D01*
X17230320Y16757727D01*
X17122147Y16496574D01*
X17067000Y16219335D01*
X17067000Y15936665D01*
X17122147Y15659426D01*
X17230320Y15398273D01*
X17387363Y15163241D01*
X17587241Y14963363D01*
X17819759Y14808000D01*
X17587241Y14652637D01*
X17387363Y14452759D01*
X17230320Y14217727D01*
X17122147Y13956574D01*
X17067000Y13679335D01*
X17067000Y13396665D01*
X17122147Y13119426D01*
X17230320Y12858273D01*
X17387363Y12623241D01*
X17587241Y12423363D01*
X17819759Y12268000D01*
X17587241Y12112637D01*
X17387363Y11912759D01*
X17230320Y11677727D01*
X17122147Y11416574D01*
X17067000Y11139335D01*
X17067000Y10856665D01*
X17122147Y10579426D01*
X17230320Y10318273D01*
X17387363Y10083241D01*
X17587241Y9883363D01*
X17822273Y9726320D01*
X17832865Y9721933D01*
X17646869Y9610385D01*
X17438481Y9421414D01*
X17270963Y9195420D01*
X17150754Y8941087D01*
X17110096Y8807039D01*
X17232085Y8585000D01*
X18375000Y8585000D01*
X18375000Y8605000D01*
X18629000Y8605000D01*
X18629000Y8585000D01*
X19771915Y8585000D01*
X19893904Y8807039D01*
X19853246Y8941087D01*
X19733037Y9195420D01*
X19565519Y9421414D01*
X19357131Y9610385D01*
X19171135Y9721933D01*
X19181727Y9726320D01*
X19416759Y9883363D01*
X19616637Y10083241D01*
X19773680Y10318273D01*
X19881853Y10579426D01*
X19937000Y10856665D01*
X19937000Y11139335D01*
X19881853Y11416574D01*
X19773680Y11677727D01*
X19616637Y11912759D01*
X19416759Y12112637D01*
X19184241Y12268000D01*
X19416759Y12423363D01*
X19616637Y12623241D01*
X19773680Y12858273D01*
X19881853Y13119426D01*
X19937000Y13396665D01*
X19937000Y13679335D01*
X19881853Y13956574D01*
X19876646Y13969144D01*
X19927363Y13893241D01*
X20127241Y13693363D01*
X20362273Y13536320D01*
X20623426Y13428147D01*
X20900665Y13373000D01*
X21183335Y13373000D01*
X21460574Y13428147D01*
X21721727Y13536320D01*
X21956759Y13693363D01*
X22156637Y13893241D01*
X22313680Y14128273D01*
X22421853Y14389426D01*
X22477000Y14666665D01*
X22477000Y14949335D01*
X22421853Y15226574D01*
X22313680Y15487727D01*
X22156637Y15722759D01*
X21956759Y15922637D01*
X21766632Y16049676D01*
X21766365Y16052385D01*
X21752805Y16097086D01*
X21956759Y16233363D01*
X22156637Y16433241D01*
X22313680Y16668273D01*
X22421853Y16929426D01*
X22477000Y17206665D01*
X22477000Y17489335D01*
X22421853Y17766574D01*
X22313680Y18027727D01*
X22156637Y18262759D01*
X21956759Y18462637D01*
X21766632Y18589676D01*
X21766365Y18592385D01*
X21724337Y18730933D01*
X21656087Y18858620D01*
X21564238Y18970538D01*
X21536193Y18993554D01*
X20676700Y19853046D01*
X20676700Y23577550D01*
X20900665Y23533000D01*
X21183335Y23533000D01*
X21460574Y23588147D01*
X21721727Y23696320D01*
X21956759Y23853363D01*
X22024991Y23921595D01*
X22024991Y22016125D01*
X22021434Y21980010D01*
X22035625Y21835925D01*
X22076009Y21702800D01*
X22077654Y21697377D01*
X22145904Y21569690D01*
X22237753Y21457772D01*
X22265798Y21434756D01*
X32349178Y11351375D01*
X32307000Y11139335D01*
X32307000Y10856665D01*
X32362147Y10579426D01*
X32470320Y10318273D01*
X32627363Y10083241D01*
X32827241Y9883363D01*
X33059759Y9728000D01*
X32827241Y9572637D01*
X32627363Y9372759D01*
X32470320Y9137727D01*
X32362147Y8876574D01*
X32307000Y8599335D01*
X32307000Y8316665D01*
X32362147Y8039426D01*
X32470320Y7778273D01*
X32627363Y7543241D01*
X32825961Y7344643D01*
X32817518Y7343812D01*
X32697820Y7307502D01*
X32587506Y7248537D01*
X32490815Y7169185D01*
X32411463Y7072494D01*
X32352498Y6962180D01*
X32316188Y6842482D01*
X32303928Y6718000D01*
X32303928Y5118000D01*
X32316188Y4993518D01*
X32352498Y4873820D01*
X32411463Y4763506D01*
X32490815Y4666815D01*
X32587506Y4587463D01*
X32697820Y4528498D01*
X32817518Y4492188D01*
X32942000Y4479928D01*
X34542000Y4479928D01*
X34666482Y4492188D01*
X34786180Y4528498D01*
X34896494Y4587463D01*
X34993185Y4666815D01*
X35072537Y4763506D01*
X35131502Y4873820D01*
X35167812Y4993518D01*
X35180072Y5118000D01*
X35180072Y5226260D01*
X45505000Y5226260D01*
X45505000Y4933740D01*
X45562068Y4646842D01*
X45674010Y4376589D01*
X45836525Y4133368D01*
X46043368Y3926525D01*
X46217760Y3810000D01*
X46043368Y3693475D01*
X45836525Y3486632D01*
X45674010Y3243411D01*
X45562068Y2973158D01*
X45505000Y2686260D01*
X45505000Y2393740D01*
X45562068Y2106842D01*
X45674010Y1836589D01*
X45836525Y1593368D01*
X46043368Y1386525D01*
X46286589Y1224010D01*
X46556842Y1112068D01*
X46843740Y1055000D01*
X47136260Y1055000D01*
X47423158Y1112068D01*
X47693411Y1224010D01*
X47936632Y1386525D01*
X48143475Y1593368D01*
X48305990Y1836589D01*
X48417932Y2106842D01*
X48475000Y2393740D01*
X48475000Y2686260D01*
X48417932Y2973158D01*
X48305990Y3243411D01*
X48143475Y3486632D01*
X47936632Y3693475D01*
X47762240Y3810000D01*
X47936632Y3926525D01*
X48143475Y4133368D01*
X48305990Y4376589D01*
X48417932Y4646842D01*
X48475000Y4933740D01*
X48475000Y5226260D01*
X65825000Y5226260D01*
X65825000Y4933740D01*
X65882068Y4646842D01*
X65994010Y4376589D01*
X66156525Y4133368D01*
X66363368Y3926525D01*
X66537760Y3810000D01*
X66363368Y3693475D01*
X66156525Y3486632D01*
X65994010Y3243411D01*
X65882068Y2973158D01*
X65825000Y2686260D01*
X65825000Y2393740D01*
X65882068Y2106842D01*
X65994010Y1836589D01*
X66156525Y1593368D01*
X66363368Y1386525D01*
X66606589Y1224010D01*
X66876842Y1112068D01*
X67163740Y1055000D01*
X67456260Y1055000D01*
X67743158Y1112068D01*
X68013411Y1224010D01*
X68256632Y1386525D01*
X68463475Y1593368D01*
X68625990Y1836589D01*
X68737932Y2106842D01*
X68795000Y2393740D01*
X68795000Y2686260D01*
X68737932Y2973158D01*
X68625990Y3243411D01*
X68463475Y3486632D01*
X68256632Y3693475D01*
X68082240Y3810000D01*
X68256632Y3926525D01*
X68463475Y4133368D01*
X68625990Y4376589D01*
X68737932Y4646842D01*
X68795000Y4933740D01*
X68795000Y5220128D01*
X71765000Y5220128D01*
X71765000Y4779872D01*
X71850890Y4348075D01*
X72019369Y3941331D01*
X72263962Y3575271D01*
X72575271Y3263962D01*
X72941331Y3019369D01*
X73348075Y2850890D01*
X73779872Y2765000D01*
X74220128Y2765000D01*
X74651925Y2850890D01*
X75058669Y3019369D01*
X75424729Y3263962D01*
X75736038Y3575271D01*
X75980631Y3941331D01*
X76149110Y4348075D01*
X76235000Y4779872D01*
X76235000Y5220128D01*
X76149110Y5651925D01*
X75980631Y6058669D01*
X75736038Y6424729D01*
X75424729Y6736038D01*
X75058669Y6980631D01*
X74651925Y7149110D01*
X74220128Y7235000D01*
X73779872Y7235000D01*
X73348075Y7149110D01*
X72941331Y6980631D01*
X72575271Y6736038D01*
X72263962Y6424729D01*
X72019369Y6058669D01*
X71850890Y5651925D01*
X71765000Y5220128D01*
X68795000Y5220128D01*
X68795000Y5226260D01*
X68737932Y5513158D01*
X68625990Y5783411D01*
X68463475Y6026632D01*
X68256632Y6233475D01*
X68013411Y6395990D01*
X67743158Y6507932D01*
X67456260Y6565000D01*
X67163740Y6565000D01*
X66876842Y6507932D01*
X66606589Y6395990D01*
X66363368Y6233475D01*
X66156525Y6026632D01*
X65994010Y5783411D01*
X65882068Y5513158D01*
X65825000Y5226260D01*
X48475000Y5226260D01*
X48417932Y5513158D01*
X48305990Y5783411D01*
X48143475Y6026632D01*
X47936632Y6233475D01*
X47693411Y6395990D01*
X47423158Y6507932D01*
X47136260Y6565000D01*
X46843740Y6565000D01*
X46556842Y6507932D01*
X46286589Y6395990D01*
X46043368Y6233475D01*
X45836525Y6026632D01*
X45674010Y5783411D01*
X45562068Y5513158D01*
X45505000Y5226260D01*
X35180072Y5226260D01*
X35180072Y6718000D01*
X35167812Y6842482D01*
X35131502Y6962180D01*
X35072537Y7072494D01*
X34993185Y7169185D01*
X34896494Y7248537D01*
X34786180Y7307502D01*
X34666482Y7343812D01*
X34658039Y7344643D01*
X34856637Y7543241D01*
X35013680Y7778273D01*
X35121853Y8039426D01*
X35177000Y8316665D01*
X35177000Y8599335D01*
X35121853Y8876574D01*
X35013680Y9137727D01*
X34856637Y9372759D01*
X34656759Y9572637D01*
X34424241Y9728000D01*
X34656759Y9883363D01*
X34856637Y10083241D01*
X35013680Y10318273D01*
X35121853Y10579426D01*
X35177000Y10856665D01*
X35177000Y11139335D01*
X35121853Y11416574D01*
X35013680Y11677727D01*
X34856637Y11912759D01*
X34656759Y12112637D01*
X34424241Y12268000D01*
X34656759Y12423363D01*
X34856637Y12623241D01*
X35013680Y12858273D01*
X35121853Y13119426D01*
X35177000Y13396665D01*
X35177000Y13679335D01*
X35121853Y13956574D01*
X35013680Y14217727D01*
X34856637Y14452759D01*
X34656759Y14652637D01*
X34424241Y14808000D01*
X34656759Y14963363D01*
X34856637Y15163241D01*
X35013680Y15398273D01*
X35121853Y15659426D01*
X35177000Y15936665D01*
X35177000Y16219335D01*
X35121853Y16496574D01*
X35013680Y16757727D01*
X34856637Y16992759D01*
X34656759Y17192637D01*
X34466632Y17319676D01*
X34466365Y17322385D01*
X34452805Y17367086D01*
X34656759Y17503363D01*
X34856637Y17703241D01*
X34976748Y17883000D01*
X46878895Y17883000D01*
X46915000Y17879444D01*
X46951105Y17883000D01*
X47059085Y17893635D01*
X47197633Y17935663D01*
X47325320Y18003913D01*
X47437238Y18095762D01*
X47460259Y18123813D01*
X58706415Y29369968D01*
X58923080Y29208359D01*
X59185901Y29083175D01*
X59333110Y29038524D01*
X59563000Y29159845D01*
X59563000Y30353000D01*
X59543000Y30353000D01*
X59543000Y30607000D01*
X59563000Y30607000D01*
X59563000Y31800155D01*
X59817000Y31800155D01*
X59817000Y30607000D01*
X59837000Y30607000D01*
X59837000Y30353000D01*
X59817000Y30353000D01*
X59817000Y29159845D01*
X60046890Y29038524D01*
X60194099Y29083175D01*
X60456920Y29208359D01*
X60690269Y29382412D01*
X60885178Y29598645D01*
X60954805Y29715534D01*
X61076525Y29533368D01*
X61283368Y29326525D01*
X61526589Y29164010D01*
X61796842Y29052068D01*
X62083740Y28995000D01*
X62376260Y28995000D01*
X62663158Y29052068D01*
X62933411Y29164010D01*
X63176632Y29326525D01*
X63383475Y29533368D01*
X63500000Y29707760D01*
X63616525Y29533368D01*
X63823368Y29326525D01*
X64066589Y29164010D01*
X64336842Y29052068D01*
X64623740Y28995000D01*
X64916260Y28995000D01*
X65203158Y29052068D01*
X65473411Y29164010D01*
X65716632Y29326525D01*
X65848487Y29458380D01*
X65870498Y29385820D01*
X65929463Y29275506D01*
X66008815Y29178815D01*
X66105506Y29099463D01*
X66215820Y29040498D01*
X66335518Y29004188D01*
X66460000Y28991928D01*
X68160000Y28991928D01*
X68284482Y29004188D01*
X68404180Y29040498D01*
X68514494Y29099463D01*
X68611185Y29178815D01*
X68690537Y29275506D01*
X68749502Y29385820D01*
X68785812Y29505518D01*
X68798072Y29630000D01*
X68798072Y31330000D01*
X68785812Y31454482D01*
X68749502Y31574180D01*
X68690537Y31684494D01*
X68611185Y31781185D01*
X68514494Y31860537D01*
X68404180Y31919502D01*
X68284482Y31955812D01*
X68160000Y31968072D01*
X66460000Y31968072D01*
X66335518Y31955812D01*
X66215820Y31919502D01*
X66105506Y31860537D01*
X66008815Y31781185D01*
X65929463Y31684494D01*
X65870498Y31574180D01*
X65848487Y31501620D01*
X65716632Y31633475D01*
X65473411Y31795990D01*
X65203158Y31907932D01*
X64916260Y31965000D01*
X64623740Y31965000D01*
X64336842Y31907932D01*
X64066589Y31795990D01*
X63823368Y31633475D01*
X63616525Y31426632D01*
X63500000Y31252240D01*
X63383475Y31426632D01*
X63176632Y31633475D01*
X62933411Y31795990D01*
X62663158Y31907932D01*
X62376260Y31965000D01*
X62083740Y31965000D01*
X61796842Y31907932D01*
X61526589Y31795990D01*
X61283368Y31633475D01*
X61076525Y31426632D01*
X60954805Y31244466D01*
X60885178Y31361355D01*
X60690269Y31577588D01*
X60456920Y31751641D01*
X60194099Y31876825D01*
X60046890Y31921476D01*
X59817000Y31800155D01*
X59563000Y31800155D01*
X59333110Y31921476D01*
X59185901Y31876825D01*
X59155000Y31862107D01*
X59155000Y33355354D01*
X62447501Y36647854D01*
X62525518Y36624188D01*
X62650000Y36611928D01*
X63214250Y36615000D01*
X63373000Y36773750D01*
X63373000Y37973000D01*
X63627000Y37973000D01*
X63627000Y36773750D01*
X63785750Y36615000D01*
X64350000Y36611928D01*
X64474482Y36624188D01*
X64594180Y36660498D01*
X64704494Y36719463D01*
X64801185Y36798815D01*
X64880537Y36895506D01*
X64939502Y37005820D01*
X64975812Y37125518D01*
X64988072Y37250000D01*
X64985000Y37814250D01*
X64826250Y37973000D01*
X63627000Y37973000D01*
X63373000Y37973000D01*
X63353000Y37973000D01*
X63353000Y38227000D01*
X63373000Y38227000D01*
X63373000Y39426250D01*
X63627000Y39426250D01*
X63627000Y38227000D01*
X64826250Y38227000D01*
X64985000Y38385750D01*
X64988072Y38950000D01*
X64975812Y39074482D01*
X64939502Y39194180D01*
X64880537Y39304494D01*
X64801185Y39401185D01*
X64704494Y39480537D01*
X64594180Y39539502D01*
X64474482Y39575812D01*
X64350000Y39588072D01*
X63785750Y39585000D01*
X63627000Y39426250D01*
X63373000Y39426250D01*
X63214250Y39585000D01*
X62872100Y39586863D01*
X62872100Y41881506D01*
X62875655Y41917601D01*
X62872100Y41953696D01*
X62872100Y41953705D01*
X62861465Y42061685D01*
X62857397Y42075096D01*
X62979608Y42175392D01*
X63158932Y42393899D01*
X63230000Y42526858D01*
X63301068Y42393899D01*
X63480393Y42175392D01*
X63698900Y41996068D01*
X63948193Y41862818D01*
X64218692Y41780764D01*
X64500000Y41753057D01*
X64781309Y41780764D01*
X65051808Y41862818D01*
X65301101Y41996068D01*
X65519608Y42175392D01*
X65698932Y42393899D01*
X65832182Y42643192D01*
X65914236Y42913691D01*
X65935000Y43124509D01*
X65935000Y44065492D01*
X65914236Y44276309D01*
X65832182Y44546808D01*
X65698932Y44796101D01*
X65519607Y45014608D01*
X65301100Y45193932D01*
X65051807Y45327182D01*
X64781308Y45409236D01*
X64500000Y45436943D01*
X64218691Y45409236D01*
X63948192Y45327182D01*
X63698899Y45193932D01*
X63480392Y45014607D01*
X63301068Y44796100D01*
X63230000Y44663142D01*
X63158932Y44796101D01*
X62979607Y45014608D01*
X62761100Y45193932D01*
X62511807Y45327182D01*
X62241308Y45409236D01*
X61960000Y45436943D01*
X61678691Y45409236D01*
X61525000Y45362615D01*
X61525000Y49627298D01*
X67496903Y49627298D01*
X67568486Y49383329D01*
X67823996Y49262429D01*
X68098184Y49193700D01*
X68380512Y49179783D01*
X68660130Y49221213D01*
X68926292Y49316397D01*
X69051514Y49383329D01*
X69123097Y49627298D01*
X68310000Y50440395D01*
X67496903Y49627298D01*
X61525000Y49627298D01*
X61525000Y50549488D01*
X66869783Y50549488D01*
X66911213Y50269870D01*
X67006397Y50003708D01*
X67073329Y49878486D01*
X67317298Y49806903D01*
X68130395Y50620000D01*
X68489605Y50620000D01*
X69302702Y49806903D01*
X69546671Y49878486D01*
X69667571Y50133996D01*
X69736300Y50408184D01*
X69750217Y50690512D01*
X69708787Y50970130D01*
X69613603Y51236292D01*
X69546671Y51361514D01*
X69302702Y51433097D01*
X68489605Y50620000D01*
X68130395Y50620000D01*
X67317298Y51433097D01*
X67073329Y51361514D01*
X66952429Y51106004D01*
X66883700Y50831816D01*
X66869783Y50549488D01*
X61525000Y50549488D01*
X61525000Y52285000D01*
X67142070Y52285000D01*
X67195363Y52205241D01*
X67395241Y52005363D01*
X67595869Y51871308D01*
X67568486Y51856671D01*
X67496903Y51612702D01*
X68310000Y50799605D01*
X69123097Y51612702D01*
X69051514Y51856671D01*
X69022659Y51870324D01*
X69224759Y52005363D01*
X69424637Y52205241D01*
X69581680Y52440273D01*
X69689853Y52701426D01*
X69745000Y52978665D01*
X69745000Y53261335D01*
X69689853Y53538574D01*
X69666360Y53595292D01*
X70389828Y54318760D01*
X70421691Y54344909D01*
X70526036Y54472054D01*
X70603572Y54617113D01*
X70651318Y54774511D01*
X70663400Y54897181D01*
X70663400Y54897182D01*
X70667440Y54938199D01*
X70663400Y54979218D01*
X70663400Y61978963D01*
X70718182Y61955633D01*
X70800961Y61938096D01*
X71023000Y62060085D01*
X71023000Y63603000D01*
X71277000Y63603000D01*
X71277000Y62060085D01*
X71499039Y61938096D01*
X71581818Y61955633D01*
X71841646Y62066285D01*
X72074895Y62225500D01*
X72272601Y62427161D01*
X72427166Y62663517D01*
X72532650Y62925486D01*
X72585000Y63203000D01*
X72585000Y63603000D01*
X71277000Y63603000D01*
X71023000Y63603000D01*
X71003000Y63603000D01*
X71003000Y63857000D01*
X71023000Y63857000D01*
X71023000Y65399915D01*
X71277000Y65399915D01*
X71277000Y63857000D01*
X72585000Y63857000D01*
X72585000Y64257000D01*
X72532650Y64534514D01*
X72427166Y64796483D01*
X72272601Y65032839D01*
X72074895Y65234500D01*
X71841646Y65393715D01*
X71581818Y65504367D01*
X71499039Y65521904D01*
X71277000Y65399915D01*
X71023000Y65399915D01*
X70800961Y65521904D01*
X70718182Y65504367D01*
X70527999Y65423374D01*
X70526036Y65427046D01*
X70421691Y65554191D01*
X70389827Y65580341D01*
X65635000Y70335167D01*
X65635000Y77202385D01*
X65788692Y77155764D01*
X66070000Y77128057D01*
X66351309Y77155764D01*
X66621808Y77237818D01*
X66871101Y77371068D01*
X67089608Y77550392D01*
X67268932Y77768899D01*
X67340000Y77901858D01*
X67411068Y77768899D01*
X67590393Y77550392D01*
X67808900Y77371068D01*
X68058193Y77237818D01*
X68328692Y77155764D01*
X68610000Y77128057D01*
X68891309Y77155764D01*
X69161808Y77237818D01*
X69411101Y77371068D01*
X69629608Y77550392D01*
X69808932Y77768899D01*
X69880000Y77901858D01*
X69951068Y77768899D01*
X70130393Y77550392D01*
X70348900Y77371068D01*
X70598193Y77237818D01*
X70868692Y77155764D01*
X71150000Y77128057D01*
X71431309Y77155764D01*
X71701808Y77237818D01*
X71951101Y77371068D01*
X72169608Y77550392D01*
X72348932Y77768899D01*
X72482182Y78018192D01*
X72564236Y78288691D01*
X72585000Y78499509D01*
X72585000Y79440492D01*
X72564236Y79651309D01*
X72482182Y79921808D01*
X72348932Y80171101D01*
X72169607Y80389608D01*
X71951100Y80568932D01*
X71701807Y80702182D01*
X71431308Y80784236D01*
X71150000Y80811943D01*
X70868691Y80784236D01*
X70598192Y80702182D01*
X70348899Y80568932D01*
X70130392Y80389607D01*
X69951068Y80171100D01*
X69880000Y80038142D01*
X69808932Y80171101D01*
X69629607Y80389608D01*
X69411100Y80568932D01*
X69161807Y80702182D01*
X68891308Y80784236D01*
X68610000Y80811943D01*
X68328691Y80784236D01*
X68058192Y80702182D01*
X67808899Y80568932D01*
X67590392Y80389607D01*
X67411068Y80171100D01*
X67340000Y80038142D01*
X67268932Y80171101D01*
X67089607Y80389608D01*
X66871100Y80568932D01*
X66805000Y80604263D01*
X66805000Y80929147D01*
X66854277Y81002895D01*
X66920990Y81163955D01*
X66955000Y81334935D01*
X66955000Y81509265D01*
X66920990Y81680245D01*
X66854277Y81841305D01*
X66757424Y81986255D01*
X66634155Y82109524D01*
X66489205Y82206377D01*
X66328145Y82273090D01*
X66157165Y82307100D01*
X65982835Y82307100D01*
X65811855Y82273090D01*
X65650795Y82206377D01*
X65505845Y82109524D01*
X65382576Y81986255D01*
X65285723Y81841305D01*
X65219010Y81680245D01*
X65185000Y81509265D01*
X65185000Y81435568D01*
X65010512Y81610056D01*
X65021185Y81618815D01*
X65100537Y81715506D01*
X65159502Y81825820D01*
X65195812Y81945518D01*
X65208072Y82070000D01*
X65208072Y83220128D01*
X71765000Y83220128D01*
X71765000Y82779872D01*
X71850890Y82348075D01*
X72019369Y81941331D01*
X72263962Y81575271D01*
X72575271Y81263962D01*
X72941331Y81019369D01*
X73348075Y80850890D01*
X73779872Y80765000D01*
X74220128Y80765000D01*
X74651925Y80850890D01*
X75058669Y81019369D01*
X75424729Y81263962D01*
X75736038Y81575271D01*
X75980631Y81941331D01*
X76149110Y82348075D01*
X76235000Y82779872D01*
X76235000Y83220128D01*
X76149110Y83651925D01*
X75980631Y84058669D01*
X75736038Y84424729D01*
X75424729Y84736038D01*
X75058669Y84980631D01*
X74651925Y85149110D01*
X74220128Y85235000D01*
X73779872Y85235000D01*
X73348075Y85149110D01*
X72941331Y84980631D01*
X72575271Y84736038D01*
X72263962Y84424729D01*
X72019369Y84058669D01*
X71850890Y83651925D01*
X71765000Y83220128D01*
X65208072Y83220128D01*
X65208072Y83670000D01*
X65195812Y83794482D01*
X65159502Y83914180D01*
X65100537Y84024494D01*
X65021185Y84121185D01*
X64924494Y84200537D01*
X64814180Y84259502D01*
X64694482Y84295812D01*
X64570000Y84308072D01*
X64562785Y84308072D01*
X64583097Y84377298D01*
X63770000Y85190395D01*
X63755858Y85176252D01*
X63576253Y85355857D01*
X63590395Y85370000D01*
X63949605Y85370000D01*
X64762702Y84556903D01*
X65006671Y84628486D01*
X65127571Y84883996D01*
X65196300Y85158184D01*
X65210217Y85440512D01*
X65168787Y85720130D01*
X65073603Y85986292D01*
X65006671Y86111514D01*
X64762702Y86183097D01*
X63949605Y85370000D01*
X63590395Y85370000D01*
X62777298Y86183097D01*
X62533329Y86111514D01*
X62465109Y85967338D01*
X62069745Y86362702D01*
X62956903Y86362702D01*
X63770000Y85549605D01*
X64583097Y86362702D01*
X64511514Y86606671D01*
X64256004Y86727571D01*
X63981816Y86796300D01*
X63699488Y86810217D01*
X63419870Y86768787D01*
X63153708Y86673603D01*
X63028486Y86606671D01*
X62956903Y86362702D01*
X62069745Y86362702D01*
X59559446Y88873000D01*
X71998033Y88873000D01*
X72048052Y88812052D01*
X72148550Y88729575D01*
X72263207Y88668290D01*
X72387617Y88630550D01*
X72484581Y88621000D01*
X72517000Y88617807D01*
X72549419Y88621000D01*
X78334045Y88621000D01*
X78339956Y660000D01*
X660000Y660000D01*
X660000Y5220128D01*
X2765000Y5220128D01*
X2765000Y4779872D01*
X2850890Y4348075D01*
X3019369Y3941331D01*
X3263962Y3575271D01*
X3575271Y3263962D01*
X3941331Y3019369D01*
X4348075Y2850890D01*
X4779872Y2765000D01*
X5220128Y2765000D01*
X5651925Y2850890D01*
X6058669Y3019369D01*
X6424729Y3263962D01*
X6736038Y3575271D01*
X6980631Y3941331D01*
X7149110Y4348075D01*
X7235000Y4779872D01*
X7235000Y5220128D01*
X7149110Y5651925D01*
X6980631Y6058669D01*
X6980186Y6059335D01*
X17067000Y6059335D01*
X17067000Y5776665D01*
X17122147Y5499426D01*
X17230320Y5238273D01*
X17387363Y5003241D01*
X17587241Y4803363D01*
X17822273Y4646320D01*
X18083426Y4538147D01*
X18360665Y4483000D01*
X18643335Y4483000D01*
X18920574Y4538147D01*
X19181727Y4646320D01*
X19416759Y4803363D01*
X19616637Y5003241D01*
X19773680Y5238273D01*
X19881853Y5499426D01*
X19937000Y5776665D01*
X19937000Y6059335D01*
X19881853Y6336574D01*
X19773680Y6597727D01*
X19616637Y6832759D01*
X19416759Y7032637D01*
X19181727Y7189680D01*
X19171135Y7194067D01*
X19357131Y7305615D01*
X19565519Y7494586D01*
X19733037Y7720580D01*
X19853246Y7974913D01*
X19893904Y8108961D01*
X19771915Y8331000D01*
X18629000Y8331000D01*
X18629000Y8311000D01*
X18375000Y8311000D01*
X18375000Y8331000D01*
X17232085Y8331000D01*
X17110096Y8108961D01*
X17150754Y7974913D01*
X17270963Y7720580D01*
X17438481Y7494586D01*
X17646869Y7305615D01*
X17832865Y7194067D01*
X17822273Y7189680D01*
X17587241Y7032637D01*
X17387363Y6832759D01*
X17230320Y6597727D01*
X17122147Y6336574D01*
X17067000Y6059335D01*
X6980186Y6059335D01*
X6736038Y6424729D01*
X6424729Y6736038D01*
X6058669Y6980631D01*
X5651925Y7149110D01*
X5220128Y7235000D01*
X4779872Y7235000D01*
X4348075Y7149110D01*
X3941331Y6980631D01*
X3575271Y6736038D01*
X3263962Y6424729D01*
X3019369Y6058669D01*
X2850890Y5651925D01*
X2765000Y5220128D01*
X660000Y5220128D01*
X660000Y65404298D01*
X7505903Y65404298D01*
X7577486Y65160329D01*
X7832996Y65039429D01*
X8107184Y64970700D01*
X8389512Y64956783D01*
X8669130Y64998213D01*
X8935292Y65093397D01*
X9060514Y65160329D01*
X9132097Y65404298D01*
X8319000Y66217395D01*
X7505903Y65404298D01*
X660000Y65404298D01*
X660000Y66326488D01*
X6878783Y66326488D01*
X6920213Y66046870D01*
X7015397Y65780708D01*
X7082329Y65655486D01*
X7326298Y65583903D01*
X8139395Y66397000D01*
X8498605Y66397000D01*
X9311702Y65583903D01*
X9555671Y65655486D01*
X9676571Y65910996D01*
X9745300Y66185184D01*
X9759217Y66467512D01*
X9717787Y66747130D01*
X9622603Y67013292D01*
X9555671Y67138514D01*
X9311702Y67210097D01*
X8498605Y66397000D01*
X8139395Y66397000D01*
X7326298Y67210097D01*
X7082329Y67138514D01*
X6961429Y66883004D01*
X6892700Y66608816D01*
X6878783Y66326488D01*
X660000Y66326488D01*
X660000Y78819488D01*
X9634783Y78819488D01*
X9676213Y78539870D01*
X9771397Y78273708D01*
X9838329Y78148486D01*
X10082298Y78076903D01*
X10895395Y78890000D01*
X10082298Y79703097D01*
X9838329Y79631514D01*
X9717429Y79376004D01*
X9648700Y79101816D01*
X9634783Y78819488D01*
X660000Y78819488D01*
X660000Y83220128D01*
X2765000Y83220128D01*
X2765000Y82779872D01*
X2850890Y82348075D01*
X3019369Y81941331D01*
X3263962Y81575271D01*
X3575271Y81263962D01*
X3941331Y81019369D01*
X4348075Y80850890D01*
X4779872Y80765000D01*
X5220128Y80765000D01*
X5651925Y80850890D01*
X6058669Y81019369D01*
X6424729Y81263962D01*
X6736038Y81575271D01*
X6980631Y81941331D01*
X7149110Y82348075D01*
X7235000Y82779872D01*
X7235000Y83220128D01*
X7149110Y83651925D01*
X6980631Y84058669D01*
X6736038Y84424729D01*
X6424729Y84736038D01*
X6058669Y84980631D01*
X5651925Y85149110D01*
X5220128Y85235000D01*
X4779872Y85235000D01*
X4348075Y85149110D01*
X3941331Y84980631D01*
X3575271Y84736038D01*
X3263962Y84424729D01*
X3019369Y84058669D01*
X2850890Y83651925D01*
X2765000Y83220128D01*
X660000Y83220128D01*
X660000Y88621000D01*
X6444581Y88621000D01*
X6477000Y88617807D01*
X6509419Y88621000D01*
X6606383Y88630550D01*
X6730793Y88668290D01*
X6845450Y88729575D01*
X6945948Y88812052D01*
X6995967Y88873000D01*
X8501843Y88873000D01*
X8505808Y88869746D01*
G37*
G04 #@! TD.AperFunction*
D21*
X37901068Y57633899D02*
X38080393Y57415392D01*
X38298900Y57236068D01*
X38548193Y57102818D01*
X38818692Y57020764D01*
X39100000Y56993057D01*
X39381309Y57020764D01*
X39651808Y57102818D01*
X39789700Y57176523D01*
X39789701Y49364448D01*
X36065808Y45640554D01*
X36037763Y45617538D01*
X35945914Y45505620D01*
X35900583Y45420812D01*
X35877664Y45377933D01*
X35835635Y45239385D01*
X35835174Y45234702D01*
X35758899Y45193932D01*
X35540392Y45014607D01*
X35361068Y44796100D01*
X35290000Y44663142D01*
X35218932Y44796101D01*
X35039607Y45014608D01*
X34821100Y45193932D01*
X34571807Y45327182D01*
X34301308Y45409236D01*
X34020000Y45436943D01*
X33738691Y45409236D01*
X33468192Y45327182D01*
X33218899Y45193932D01*
X33000392Y45014607D01*
X32821068Y44796100D01*
X32752735Y44668258D01*
X32602601Y44897839D01*
X32404895Y45099500D01*
X32171646Y45258715D01*
X31911818Y45369367D01*
X31829039Y45386904D01*
X31607000Y45264915D01*
X31607000Y43722000D01*
X31627000Y43722000D01*
X31627000Y43468000D01*
X31607000Y43468000D01*
X31607000Y41925085D01*
X31829039Y41803096D01*
X31911818Y41820633D01*
X32171646Y41931285D01*
X32404895Y42090500D01*
X32602601Y42292161D01*
X32752735Y42521741D01*
X32821068Y42393899D01*
X33000393Y42175392D01*
X33218900Y41996068D01*
X33295174Y41955299D01*
X33295635Y41950615D01*
X33337663Y41812067D01*
X33405913Y41684380D01*
X33497762Y41572462D01*
X33609680Y41480613D01*
X33737367Y41412363D01*
X33875915Y41370335D01*
X33983895Y41359700D01*
X34020000Y41356144D01*
X34056105Y41359700D01*
X36987195Y41359700D01*
X37023300Y41356144D01*
X37059405Y41359700D01*
X37167385Y41370335D01*
X37305933Y41412363D01*
X37433620Y41480613D01*
X37545538Y41572462D01*
X37568558Y41600512D01*
X38115021Y42146974D01*
X38298900Y41996068D01*
X38548193Y41862818D01*
X38818692Y41780764D01*
X39100000Y41753057D01*
X39381309Y41780764D01*
X39651808Y41862818D01*
X39901101Y41996068D01*
X40119608Y42175392D01*
X40298932Y42393899D01*
X40370000Y42526858D01*
X40441068Y42393899D01*
X40620393Y42175392D01*
X40838900Y41996068D01*
X41088193Y41862818D01*
X41358692Y41780764D01*
X41640000Y41753057D01*
X41921309Y41780764D01*
X42191808Y41862818D01*
X42441101Y41996068D01*
X42659608Y42175392D01*
X42838932Y42393899D01*
X42910000Y42526858D01*
X42981068Y42393899D01*
X43160393Y42175392D01*
X43378900Y41996068D01*
X43628193Y41862818D01*
X43898692Y41780764D01*
X44180000Y41753057D01*
X44461309Y41780764D01*
X44731808Y41862818D01*
X44981101Y41996068D01*
X45199608Y42175392D01*
X45378932Y42393899D01*
X45450000Y42526858D01*
X45521068Y42393899D01*
X45700393Y42175392D01*
X45918900Y41996068D01*
X46168193Y41862818D01*
X46438692Y41780764D01*
X46720000Y41753057D01*
X47001309Y41780764D01*
X47271808Y41862818D01*
X47521101Y41996068D01*
X47739608Y42175392D01*
X47918932Y42393899D01*
X47990000Y42526858D01*
X48061068Y42393899D01*
X48240393Y42175392D01*
X48458900Y41996068D01*
X48708193Y41862818D01*
X48978692Y41780764D01*
X49260000Y41753057D01*
X49541309Y41780764D01*
X49811808Y41862818D01*
X50061101Y41996068D01*
X50279608Y42175392D01*
X50458932Y42393899D01*
X50530000Y42526858D01*
X50601068Y42393899D01*
X50780393Y42175392D01*
X50998900Y41996068D01*
X51248193Y41862818D01*
X51518692Y41780764D01*
X51781165Y41754912D01*
X48917508Y38891254D01*
X48889462Y38868237D01*
X48797613Y38756319D01*
X48729363Y38628632D01*
X48721826Y38603785D01*
X48687335Y38490085D01*
X48673144Y38346000D01*
X48676700Y38309895D01*
X48676700Y38115847D01*
X34983600Y24422746D01*
X34856637Y24612759D01*
X34656759Y24812637D01*
X34424241Y24968000D01*
X34656759Y25123363D01*
X34856637Y25323241D01*
X35013680Y25558273D01*
X35121853Y25819426D01*
X35177000Y26096665D01*
X35177000Y26379335D01*
X35121853Y26656574D01*
X35013680Y26917727D01*
X34856637Y27152759D01*
X34656759Y27352637D01*
X34424241Y27508000D01*
X34656759Y27663363D01*
X34856637Y27863241D01*
X35013680Y28098273D01*
X35121853Y28359426D01*
X35177000Y28636665D01*
X35177000Y28919335D01*
X35121853Y29196574D01*
X35013680Y29457727D01*
X34856637Y29692759D01*
X34656759Y29892637D01*
X34424241Y30048000D01*
X34656759Y30203363D01*
X34856637Y30403241D01*
X35013680Y30638273D01*
X35121853Y30899426D01*
X35177000Y31176665D01*
X35177000Y31459335D01*
X35121853Y31736574D01*
X35013680Y31997727D01*
X34856637Y32232759D01*
X34656759Y32432637D01*
X34424241Y32588000D01*
X34656759Y32743363D01*
X34856637Y32943241D01*
X35013680Y33178273D01*
X35121853Y33439426D01*
X35177000Y33716665D01*
X35177000Y33999335D01*
X35121853Y34276574D01*
X35013680Y34537727D01*
X34856637Y34772759D01*
X34656759Y34972637D01*
X34421727Y35129680D01*
X34160574Y35237853D01*
X33883335Y35293000D01*
X33600665Y35293000D01*
X33323426Y35237853D01*
X33062273Y35129680D01*
X32827241Y34972637D01*
X32627363Y34772759D01*
X32470320Y34537727D01*
X32362147Y34276574D01*
X32307000Y33999335D01*
X32307000Y33716665D01*
X32362147Y33439426D01*
X32470320Y33178273D01*
X32627363Y32943241D01*
X32827241Y32743363D01*
X33059759Y32588000D01*
X32827241Y32432637D01*
X32627363Y32232759D01*
X32470320Y31997727D01*
X32362147Y31736574D01*
X32307000Y31459335D01*
X32307000Y31176665D01*
X32362147Y30899426D01*
X32470320Y30638273D01*
X32627363Y30403241D01*
X32827241Y30203363D01*
X33059759Y30048000D01*
X32827241Y29892637D01*
X32627363Y29692759D01*
X32470320Y29457727D01*
X32362147Y29196574D01*
X32307000Y28919335D01*
X32307000Y28636665D01*
X32362147Y28359426D01*
X32470320Y28098273D01*
X32627363Y27863241D01*
X32827241Y27663363D01*
X33059759Y27508000D01*
X32827241Y27352637D01*
X32627363Y27152759D01*
X32470320Y26917727D01*
X32362147Y26656574D01*
X32307000Y26379335D01*
X32307000Y26096665D01*
X32362147Y25819426D01*
X32470320Y25558273D01*
X32627363Y25323241D01*
X32827241Y25123363D01*
X33059759Y24968000D01*
X32827241Y24812637D01*
X32627363Y24612759D01*
X32470320Y24377727D01*
X32362147Y24116574D01*
X32307000Y23839335D01*
X32307000Y23556665D01*
X32362147Y23279426D01*
X32470320Y23018273D01*
X32627363Y22783241D01*
X32630079Y22780525D01*
X31535648Y21686094D01*
X31448655Y21668790D01*
X31287595Y21602077D01*
X31142645Y21505224D01*
X31019376Y21381955D01*
X30922523Y21237005D01*
X30855810Y21075945D01*
X30821800Y20904965D01*
X30821800Y20730635D01*
X30855810Y20559655D01*
X30922523Y20398595D01*
X31019376Y20253645D01*
X31142645Y20130376D01*
X31287595Y20033523D01*
X31448655Y19966810D01*
X31619635Y19932800D01*
X31793965Y19932800D01*
X31964945Y19966810D01*
X32126005Y20033523D01*
X32270955Y20130376D01*
X32394224Y20253645D01*
X32491077Y20398595D01*
X32503507Y20428605D01*
X32627363Y20243241D01*
X32696979Y20173625D01*
X32140308Y19616954D01*
X32112263Y19593938D01*
X32020414Y19482020D01*
X31978987Y19404515D01*
X31952164Y19354333D01*
X31910135Y19215785D01*
X31895944Y19071700D01*
X31899501Y19035586D01*
X31899500Y18184406D01*
X31895944Y18148300D01*
X31910135Y18004215D01*
X31910227Y18003913D01*
X31952163Y17865668D01*
X32020413Y17737981D01*
X32112262Y17626063D01*
X32140308Y17603046D01*
X32688979Y17054375D01*
X32627363Y16992759D01*
X32470320Y16757727D01*
X32362147Y16496574D01*
X32307000Y16219335D01*
X32307000Y15936665D01*
X32362147Y15659426D01*
X32470320Y15398273D01*
X32627363Y15163241D01*
X32827241Y14963363D01*
X33059759Y14808000D01*
X32827241Y14652637D01*
X32627363Y14452759D01*
X32470320Y14217727D01*
X32362147Y13956574D01*
X32307000Y13679335D01*
X32307000Y13472447D01*
X23494990Y22284456D01*
X23494990Y41806154D01*
X23578692Y41780764D01*
X23860000Y41753057D01*
X24141309Y41780764D01*
X24411808Y41862818D01*
X24661101Y41996068D01*
X24879608Y42175392D01*
X25058932Y42393899D01*
X25130000Y42526858D01*
X25201068Y42393899D01*
X25380393Y42175392D01*
X25598900Y41996068D01*
X25848193Y41862818D01*
X26118692Y41780764D01*
X26400000Y41753057D01*
X26681309Y41780764D01*
X26951808Y41862818D01*
X27201101Y41996068D01*
X27419608Y42175392D01*
X27598932Y42393899D01*
X27670000Y42526858D01*
X27741068Y42393899D01*
X27920393Y42175392D01*
X28138900Y41996068D01*
X28388193Y41862818D01*
X28658692Y41780764D01*
X28940000Y41753057D01*
X29221309Y41780764D01*
X29491808Y41862818D01*
X29741101Y41996068D01*
X29959608Y42175392D01*
X30138932Y42393899D01*
X30207265Y42521741D01*
X30357399Y42292161D01*
X30555105Y42090500D01*
X30788354Y41931285D01*
X31048182Y41820633D01*
X31130961Y41803096D01*
X31353000Y41925085D01*
X31353000Y43468000D01*
X31333000Y43468000D01*
X31333000Y43722000D01*
X31353000Y43722000D01*
X31353000Y45264915D01*
X31130961Y45386904D01*
X31048182Y45369367D01*
X30788354Y45258715D01*
X30555105Y45099500D01*
X30357399Y44897839D01*
X30207265Y44668259D01*
X30138932Y44796101D01*
X29959607Y45014608D01*
X29741100Y45193932D01*
X29664826Y45234701D01*
X29664365Y45239385D01*
X29622337Y45377934D01*
X29554087Y45505620D01*
X29485253Y45589494D01*
X29462238Y45617538D01*
X29434193Y45640554D01*
X28571500Y46503246D01*
X28571500Y57047213D01*
X28658692Y57020764D01*
X28940000Y56993057D01*
X29221309Y57020764D01*
X29491808Y57102818D01*
X29741101Y57236068D01*
X29959608Y57415392D01*
X30138932Y57633899D01*
X30210000Y57766858D01*
X30281068Y57633899D01*
X30460393Y57415392D01*
X30678900Y57236068D01*
X30928193Y57102818D01*
X31198692Y57020764D01*
X31480000Y56993057D01*
X31761309Y57020764D01*
X32031808Y57102818D01*
X32281101Y57236068D01*
X32499608Y57415392D01*
X32678932Y57633899D01*
X32750000Y57766858D01*
X32821068Y57633899D01*
X33000393Y57415392D01*
X33218900Y57236068D01*
X33468193Y57102818D01*
X33738692Y57020764D01*
X34020000Y56993057D01*
X34301309Y57020764D01*
X34571808Y57102818D01*
X34821101Y57236068D01*
X35039608Y57415392D01*
X35218932Y57633899D01*
X35290000Y57766858D01*
X35361068Y57633899D01*
X35540393Y57415392D01*
X35758900Y57236068D01*
X36008193Y57102818D01*
X36278692Y57020764D01*
X36560000Y56993057D01*
X36841309Y57020764D01*
X37111808Y57102818D01*
X37361101Y57236068D01*
X37579608Y57415392D01*
X37758932Y57633899D01*
X37830000Y57766858D01*
X37901068Y57633899D01*
G04 #@! TA.AperFunction,Conductor*
D22*
G36*
X37901068Y57633899D02*
G01*
X38080393Y57415392D01*
X38298900Y57236068D01*
X38548193Y57102818D01*
X38818692Y57020764D01*
X39100000Y56993057D01*
X39381309Y57020764D01*
X39651808Y57102818D01*
X39789700Y57176523D01*
X39789701Y49364448D01*
X36065808Y45640554D01*
X36037763Y45617538D01*
X35945914Y45505620D01*
X35900583Y45420812D01*
X35877664Y45377933D01*
X35835635Y45239385D01*
X35835174Y45234702D01*
X35758899Y45193932D01*
X35540392Y45014607D01*
X35361068Y44796100D01*
X35290000Y44663142D01*
X35218932Y44796101D01*
X35039607Y45014608D01*
X34821100Y45193932D01*
X34571807Y45327182D01*
X34301308Y45409236D01*
X34020000Y45436943D01*
X33738691Y45409236D01*
X33468192Y45327182D01*
X33218899Y45193932D01*
X33000392Y45014607D01*
X32821068Y44796100D01*
X32752735Y44668258D01*
X32602601Y44897839D01*
X32404895Y45099500D01*
X32171646Y45258715D01*
X31911818Y45369367D01*
X31829039Y45386904D01*
X31607000Y45264915D01*
X31607000Y43722000D01*
X31627000Y43722000D01*
X31627000Y43468000D01*
X31607000Y43468000D01*
X31607000Y41925085D01*
X31829039Y41803096D01*
X31911818Y41820633D01*
X32171646Y41931285D01*
X32404895Y42090500D01*
X32602601Y42292161D01*
X32752735Y42521741D01*
X32821068Y42393899D01*
X33000393Y42175392D01*
X33218900Y41996068D01*
X33295174Y41955299D01*
X33295635Y41950615D01*
X33337663Y41812067D01*
X33405913Y41684380D01*
X33497762Y41572462D01*
X33609680Y41480613D01*
X33737367Y41412363D01*
X33875915Y41370335D01*
X33983895Y41359700D01*
X34020000Y41356144D01*
X34056105Y41359700D01*
X36987195Y41359700D01*
X37023300Y41356144D01*
X37059405Y41359700D01*
X37167385Y41370335D01*
X37305933Y41412363D01*
X37433620Y41480613D01*
X37545538Y41572462D01*
X37568558Y41600512D01*
X38115021Y42146974D01*
X38298900Y41996068D01*
X38548193Y41862818D01*
X38818692Y41780764D01*
X39100000Y41753057D01*
X39381309Y41780764D01*
X39651808Y41862818D01*
X39901101Y41996068D01*
X40119608Y42175392D01*
X40298932Y42393899D01*
X40370000Y42526858D01*
X40441068Y42393899D01*
X40620393Y42175392D01*
X40838900Y41996068D01*
X41088193Y41862818D01*
X41358692Y41780764D01*
X41640000Y41753057D01*
X41921309Y41780764D01*
X42191808Y41862818D01*
X42441101Y41996068D01*
X42659608Y42175392D01*
X42838932Y42393899D01*
X42910000Y42526858D01*
X42981068Y42393899D01*
X43160393Y42175392D01*
X43378900Y41996068D01*
X43628193Y41862818D01*
X43898692Y41780764D01*
X44180000Y41753057D01*
X44461309Y41780764D01*
X44731808Y41862818D01*
X44981101Y41996068D01*
X45199608Y42175392D01*
X45378932Y42393899D01*
X45450000Y42526858D01*
X45521068Y42393899D01*
X45700393Y42175392D01*
X45918900Y41996068D01*
X46168193Y41862818D01*
X46438692Y41780764D01*
X46720000Y41753057D01*
X47001309Y41780764D01*
X47271808Y41862818D01*
X47521101Y41996068D01*
X47739608Y42175392D01*
X47918932Y42393899D01*
X47990000Y42526858D01*
X48061068Y42393899D01*
X48240393Y42175392D01*
X48458900Y41996068D01*
X48708193Y41862818D01*
X48978692Y41780764D01*
X49260000Y41753057D01*
X49541309Y41780764D01*
X49811808Y41862818D01*
X50061101Y41996068D01*
X50279608Y42175392D01*
X50458932Y42393899D01*
X50530000Y42526858D01*
X50601068Y42393899D01*
X50780393Y42175392D01*
X50998900Y41996068D01*
X51248193Y41862818D01*
X51518692Y41780764D01*
X51781165Y41754912D01*
X48917508Y38891254D01*
X48889462Y38868237D01*
X48797613Y38756319D01*
X48729363Y38628632D01*
X48721826Y38603785D01*
X48687335Y38490085D01*
X48673144Y38346000D01*
X48676700Y38309895D01*
X48676700Y38115847D01*
X34983600Y24422746D01*
X34856637Y24612759D01*
X34656759Y24812637D01*
X34424241Y24968000D01*
X34656759Y25123363D01*
X34856637Y25323241D01*
X35013680Y25558273D01*
X35121853Y25819426D01*
X35177000Y26096665D01*
X35177000Y26379335D01*
X35121853Y26656574D01*
X35013680Y26917727D01*
X34856637Y27152759D01*
X34656759Y27352637D01*
X34424241Y27508000D01*
X34656759Y27663363D01*
X34856637Y27863241D01*
X35013680Y28098273D01*
X35121853Y28359426D01*
X35177000Y28636665D01*
X35177000Y28919335D01*
X35121853Y29196574D01*
X35013680Y29457727D01*
X34856637Y29692759D01*
X34656759Y29892637D01*
X34424241Y30048000D01*
X34656759Y30203363D01*
X34856637Y30403241D01*
X35013680Y30638273D01*
X35121853Y30899426D01*
X35177000Y31176665D01*
X35177000Y31459335D01*
X35121853Y31736574D01*
X35013680Y31997727D01*
X34856637Y32232759D01*
X34656759Y32432637D01*
X34424241Y32588000D01*
X34656759Y32743363D01*
X34856637Y32943241D01*
X35013680Y33178273D01*
X35121853Y33439426D01*
X35177000Y33716665D01*
X35177000Y33999335D01*
X35121853Y34276574D01*
X35013680Y34537727D01*
X34856637Y34772759D01*
X34656759Y34972637D01*
X34421727Y35129680D01*
X34160574Y35237853D01*
X33883335Y35293000D01*
X33600665Y35293000D01*
X33323426Y35237853D01*
X33062273Y35129680D01*
X32827241Y34972637D01*
X32627363Y34772759D01*
X32470320Y34537727D01*
X32362147Y34276574D01*
X32307000Y33999335D01*
X32307000Y33716665D01*
X32362147Y33439426D01*
X32470320Y33178273D01*
X32627363Y32943241D01*
X32827241Y32743363D01*
X33059759Y32588000D01*
X32827241Y32432637D01*
X32627363Y32232759D01*
X32470320Y31997727D01*
X32362147Y31736574D01*
X32307000Y31459335D01*
X32307000Y31176665D01*
X32362147Y30899426D01*
X32470320Y30638273D01*
X32627363Y30403241D01*
X32827241Y30203363D01*
X33059759Y30048000D01*
X32827241Y29892637D01*
X32627363Y29692759D01*
X32470320Y29457727D01*
X32362147Y29196574D01*
X32307000Y28919335D01*
X32307000Y28636665D01*
X32362147Y28359426D01*
X32470320Y28098273D01*
X32627363Y27863241D01*
X32827241Y27663363D01*
X33059759Y27508000D01*
X32827241Y27352637D01*
X32627363Y27152759D01*
X32470320Y26917727D01*
X32362147Y26656574D01*
X32307000Y26379335D01*
X32307000Y26096665D01*
X32362147Y25819426D01*
X32470320Y25558273D01*
X32627363Y25323241D01*
X32827241Y25123363D01*
X33059759Y24968000D01*
X32827241Y24812637D01*
X32627363Y24612759D01*
X32470320Y24377727D01*
X32362147Y24116574D01*
X32307000Y23839335D01*
X32307000Y23556665D01*
X32362147Y23279426D01*
X32470320Y23018273D01*
X32627363Y22783241D01*
X32630079Y22780525D01*
X31535648Y21686094D01*
X31448655Y21668790D01*
X31287595Y21602077D01*
X31142645Y21505224D01*
X31019376Y21381955D01*
X30922523Y21237005D01*
X30855810Y21075945D01*
X30821800Y20904965D01*
X30821800Y20730635D01*
X30855810Y20559655D01*
X30922523Y20398595D01*
X31019376Y20253645D01*
X31142645Y20130376D01*
X31287595Y20033523D01*
X31448655Y19966810D01*
X31619635Y19932800D01*
X31793965Y19932800D01*
X31964945Y19966810D01*
X32126005Y20033523D01*
X32270955Y20130376D01*
X32394224Y20253645D01*
X32491077Y20398595D01*
X32503507Y20428605D01*
X32627363Y20243241D01*
X32696979Y20173625D01*
X32140308Y19616954D01*
X32112263Y19593938D01*
X32020414Y19482020D01*
X31978987Y19404515D01*
X31952164Y19354333D01*
X31910135Y19215785D01*
X31895944Y19071700D01*
X31899501Y19035586D01*
X31899500Y18184406D01*
X31895944Y18148300D01*
X31910135Y18004215D01*
X31910227Y18003913D01*
X31952163Y17865668D01*
X32020413Y17737981D01*
X32112262Y17626063D01*
X32140308Y17603046D01*
X32688979Y17054375D01*
X32627363Y16992759D01*
X32470320Y16757727D01*
X32362147Y16496574D01*
X32307000Y16219335D01*
X32307000Y15936665D01*
X32362147Y15659426D01*
X32470320Y15398273D01*
X32627363Y15163241D01*
X32827241Y14963363D01*
X33059759Y14808000D01*
X32827241Y14652637D01*
X32627363Y14452759D01*
X32470320Y14217727D01*
X32362147Y13956574D01*
X32307000Y13679335D01*
X32307000Y13472447D01*
X23494990Y22284456D01*
X23494990Y41806154D01*
X23578692Y41780764D01*
X23860000Y41753057D01*
X24141309Y41780764D01*
X24411808Y41862818D01*
X24661101Y41996068D01*
X24879608Y42175392D01*
X25058932Y42393899D01*
X25130000Y42526858D01*
X25201068Y42393899D01*
X25380393Y42175392D01*
X25598900Y41996068D01*
X25848193Y41862818D01*
X26118692Y41780764D01*
X26400000Y41753057D01*
X26681309Y41780764D01*
X26951808Y41862818D01*
X27201101Y41996068D01*
X27419608Y42175392D01*
X27598932Y42393899D01*
X27670000Y42526858D01*
X27741068Y42393899D01*
X27920393Y42175392D01*
X28138900Y41996068D01*
X28388193Y41862818D01*
X28658692Y41780764D01*
X28940000Y41753057D01*
X29221309Y41780764D01*
X29491808Y41862818D01*
X29741101Y41996068D01*
X29959608Y42175392D01*
X30138932Y42393899D01*
X30207265Y42521741D01*
X30357399Y42292161D01*
X30555105Y42090500D01*
X30788354Y41931285D01*
X31048182Y41820633D01*
X31130961Y41803096D01*
X31353000Y41925085D01*
X31353000Y43468000D01*
X31333000Y43468000D01*
X31333000Y43722000D01*
X31353000Y43722000D01*
X31353000Y45264915D01*
X31130961Y45386904D01*
X31048182Y45369367D01*
X30788354Y45258715D01*
X30555105Y45099500D01*
X30357399Y44897839D01*
X30207265Y44668259D01*
X30138932Y44796101D01*
X29959607Y45014608D01*
X29741100Y45193932D01*
X29664826Y45234701D01*
X29664365Y45239385D01*
X29622337Y45377934D01*
X29554087Y45505620D01*
X29485253Y45589494D01*
X29462238Y45617538D01*
X29434193Y45640554D01*
X28571500Y46503246D01*
X28571500Y57047213D01*
X28658692Y57020764D01*
X28940000Y56993057D01*
X29221309Y57020764D01*
X29491808Y57102818D01*
X29741101Y57236068D01*
X29959608Y57415392D01*
X30138932Y57633899D01*
X30210000Y57766858D01*
X30281068Y57633899D01*
X30460393Y57415392D01*
X30678900Y57236068D01*
X30928193Y57102818D01*
X31198692Y57020764D01*
X31480000Y56993057D01*
X31761309Y57020764D01*
X32031808Y57102818D01*
X32281101Y57236068D01*
X32499608Y57415392D01*
X32678932Y57633899D01*
X32750000Y57766858D01*
X32821068Y57633899D01*
X33000393Y57415392D01*
X33218900Y57236068D01*
X33468193Y57102818D01*
X33738692Y57020764D01*
X34020000Y56993057D01*
X34301309Y57020764D01*
X34571808Y57102818D01*
X34821101Y57236068D01*
X35039608Y57415392D01*
X35218932Y57633899D01*
X35290000Y57766858D01*
X35361068Y57633899D01*
X35540393Y57415392D01*
X35758900Y57236068D01*
X36008193Y57102818D01*
X36278692Y57020764D01*
X36560000Y56993057D01*
X36841309Y57020764D01*
X37111808Y57102818D01*
X37361101Y57236068D01*
X37579608Y57415392D01*
X37758932Y57633899D01*
X37830000Y57766858D01*
X37901068Y57633899D01*
G37*
G04 #@! TD.AperFunction*
D21*
X31337763Y88792462D02*
X31365807Y88769447D01*
X31946700Y88188553D01*
X31946701Y81309654D01*
X31897423Y81235905D01*
X31830710Y81074845D01*
X31796700Y80903865D01*
X31796700Y80729535D01*
X31830710Y80558555D01*
X31897423Y80397495D01*
X31994276Y80252545D01*
X32117545Y80129276D01*
X32262495Y80032423D01*
X32423555Y79965710D01*
X32594535Y79931700D01*
X32768865Y79931700D01*
X32826856Y79943235D01*
X32729576Y79845955D01*
X32632723Y79701005D01*
X32566010Y79539945D01*
X32532000Y79368965D01*
X32532000Y79194635D01*
X32566010Y79023655D01*
X32632723Y78862595D01*
X32729576Y78717645D01*
X32852845Y78594376D01*
X32997795Y78497523D01*
X33158855Y78430810D01*
X33329835Y78396800D01*
X33504165Y78396800D01*
X33665001Y78428792D01*
X33665001Y78384848D01*
X32711508Y77431354D01*
X32683462Y77408337D01*
X32591613Y77296419D01*
X32523363Y77168732D01*
X32495523Y77076955D01*
X32481335Y77030185D01*
X32467144Y76886100D01*
X32470700Y76849995D01*
X32470701Y72519215D01*
X32467144Y72483100D01*
X32481335Y72339015D01*
X32506209Y72257019D01*
X32523364Y72200467D01*
X32591614Y72072780D01*
X32683463Y71960862D01*
X32711508Y71937846D01*
X33238003Y71411350D01*
X33211023Y71384370D01*
X33327296Y71268097D01*
X33083329Y71196514D01*
X32962429Y70941004D01*
X32893700Y70666816D01*
X32879783Y70384488D01*
X32921213Y70104870D01*
X33016397Y69838708D01*
X33083329Y69713486D01*
X33327298Y69641903D01*
X34140395Y70455000D01*
X34126253Y70469142D01*
X34305858Y70648747D01*
X34320000Y70634605D01*
X34334143Y70648747D01*
X34513748Y70469142D01*
X34499605Y70455000D01*
X35312702Y69641903D01*
X35498100Y69696301D01*
X35498101Y66769404D01*
X35448923Y66695805D01*
X35382210Y66534745D01*
X35348200Y66363765D01*
X35348200Y66189435D01*
X35382210Y66018455D01*
X35448923Y65857395D01*
X35545776Y65712445D01*
X35669045Y65589176D01*
X35813995Y65492323D01*
X35975055Y65425610D01*
X36146035Y65391600D01*
X36320365Y65391600D01*
X36491345Y65425610D01*
X36652405Y65492323D01*
X36797355Y65589176D01*
X36920624Y65712445D01*
X37017477Y65857395D01*
X37084190Y66018455D01*
X37118200Y66189435D01*
X37118200Y66363765D01*
X37084190Y66534745D01*
X37017477Y66695805D01*
X36968100Y66769703D01*
X36968100Y69126031D01*
X37295001Y68799130D01*
X37295000Y65564625D01*
X37205518Y65555812D01*
X37085820Y65519502D01*
X36975506Y65460537D01*
X36878815Y65381185D01*
X36799463Y65284494D01*
X36740498Y65174180D01*
X36704188Y65054482D01*
X36691928Y64930000D01*
X36691928Y62530000D01*
X36704188Y62405518D01*
X36740498Y62285820D01*
X36799463Y62175506D01*
X36878815Y62078815D01*
X36975506Y61999463D01*
X37085820Y61940498D01*
X37205518Y61904188D01*
X37330000Y61891928D01*
X38930000Y61891928D01*
X39054482Y61904188D01*
X39174180Y61940498D01*
X39284494Y61999463D01*
X39381185Y62078815D01*
X39460537Y62175506D01*
X39519502Y62285820D01*
X39555812Y62405518D01*
X39557581Y62423483D01*
X39650393Y62310392D01*
X39868900Y62131068D01*
X40118193Y61997818D01*
X40388692Y61915764D01*
X40670000Y61888057D01*
X40951309Y61915764D01*
X41221808Y61997818D01*
X41285001Y62031595D01*
X41285001Y61719648D01*
X40030508Y60465154D01*
X40002462Y60442137D01*
X39957645Y60387527D01*
X39901100Y60433932D01*
X39651807Y60567182D01*
X39381308Y60649236D01*
X39100000Y60676943D01*
X38818691Y60649236D01*
X38548192Y60567182D01*
X38298899Y60433932D01*
X38080392Y60254607D01*
X37901068Y60036100D01*
X37830000Y59903142D01*
X37758932Y60036101D01*
X37579607Y60254608D01*
X37361100Y60433932D01*
X37111807Y60567182D01*
X36841308Y60649236D01*
X36560000Y60676943D01*
X36278691Y60649236D01*
X36008192Y60567182D01*
X35758899Y60433932D01*
X35540392Y60254607D01*
X35361068Y60036100D01*
X35290000Y59903142D01*
X35218932Y60036101D01*
X35039607Y60254608D01*
X34821100Y60433932D01*
X34571807Y60567182D01*
X34301308Y60649236D01*
X34020000Y60676943D01*
X33738691Y60649236D01*
X33468192Y60567182D01*
X33218899Y60433932D01*
X33000392Y60254607D01*
X32821068Y60036100D01*
X32750000Y59903142D01*
X32678932Y60036101D01*
X32499607Y60254608D01*
X32281100Y60433932D01*
X32031807Y60567182D01*
X31761308Y60649236D01*
X31480000Y60676943D01*
X31198691Y60649236D01*
X30928192Y60567182D01*
X30678899Y60433932D01*
X30460392Y60254607D01*
X30281068Y60036100D01*
X30210000Y59903142D01*
X30138932Y60036101D01*
X29959607Y60254608D01*
X29741100Y60433932D01*
X29675000Y60469263D01*
X29675000Y69462298D01*
X33506903Y69462298D01*
X33578486Y69218329D01*
X33833996Y69097429D01*
X34108184Y69028700D01*
X34390512Y69014783D01*
X34670130Y69056213D01*
X34936292Y69151397D01*
X35061514Y69218329D01*
X35133097Y69462298D01*
X34320000Y70275395D01*
X33506903Y69462298D01*
X29675000Y69462298D01*
X29675000Y74449133D01*
X29730182Y74425633D01*
X29812961Y74408096D01*
X30035000Y74530085D01*
X30035000Y76073000D01*
X30289000Y76073000D01*
X30289000Y74530085D01*
X30511039Y74408096D01*
X30593818Y74425633D01*
X30853646Y74536285D01*
X31086895Y74695500D01*
X31284601Y74897161D01*
X31439166Y75133517D01*
X31544650Y75395486D01*
X31597000Y75673000D01*
X31597000Y76073000D01*
X30289000Y76073000D01*
X30035000Y76073000D01*
X30015000Y76073000D01*
X30015000Y76327000D01*
X30035000Y76327000D01*
X30035000Y77869915D01*
X30289000Y77869915D01*
X30289000Y76327000D01*
X31597000Y76327000D01*
X31597000Y76727000D01*
X31544650Y77004514D01*
X31439166Y77266483D01*
X31284601Y77502839D01*
X31086895Y77704500D01*
X30853646Y77863715D01*
X30593818Y77974367D01*
X30511039Y77991904D01*
X30289000Y77869915D01*
X30035000Y77869915D01*
X29812961Y77991904D01*
X29730182Y77974367D01*
X29470354Y77863715D01*
X29237105Y77704500D01*
X29039399Y77502839D01*
X28889265Y77273259D01*
X28820932Y77401101D01*
X28641607Y77619608D01*
X28423100Y77798932D01*
X28173807Y77932182D01*
X27903308Y78014236D01*
X27622000Y78041943D01*
X27392141Y78019304D01*
X27410377Y78046595D01*
X27477090Y78207655D01*
X27511100Y78378635D01*
X27511100Y78552965D01*
X27498426Y78616680D01*
X30656193Y81774446D01*
X30684238Y81797462D01*
X30776087Y81909380D01*
X30793165Y81941331D01*
X30844337Y82037066D01*
X30886365Y82175615D01*
X30886826Y82180298D01*
X30963101Y82221068D01*
X31181608Y82400392D01*
X31360932Y82618899D01*
X31494182Y82868192D01*
X31576236Y83138691D01*
X31597000Y83349509D01*
X31597000Y84290492D01*
X31576236Y84501309D01*
X31494182Y84771808D01*
X31360932Y85021101D01*
X31181607Y85239608D01*
X30963100Y85418932D01*
X30713807Y85552182D01*
X30443308Y85634236D01*
X30162000Y85661943D01*
X29880691Y85634236D01*
X29610192Y85552182D01*
X29360899Y85418932D01*
X29142392Y85239607D01*
X28963068Y85021100D01*
X28892000Y84888142D01*
X28820932Y85021101D01*
X28641607Y85239608D01*
X28423100Y85418932D01*
X28173807Y85552182D01*
X27903308Y85634236D01*
X27622000Y85661943D01*
X27340691Y85634236D01*
X27070192Y85552182D01*
X26926000Y85475110D01*
X26926000Y88324795D01*
X26929556Y88360900D01*
X26915365Y88504985D01*
X26908516Y88527563D01*
X26873337Y88643533D01*
X26805087Y88771220D01*
X26721557Y88873000D01*
X31271667Y88873000D01*
X31337763Y88792462D01*
G04 #@! TA.AperFunction,Conductor*
D22*
G36*
X31337763Y88792462D02*
G01*
X31365807Y88769447D01*
X31946700Y88188553D01*
X31946701Y81309654D01*
X31897423Y81235905D01*
X31830710Y81074845D01*
X31796700Y80903865D01*
X31796700Y80729535D01*
X31830710Y80558555D01*
X31897423Y80397495D01*
X31994276Y80252545D01*
X32117545Y80129276D01*
X32262495Y80032423D01*
X32423555Y79965710D01*
X32594535Y79931700D01*
X32768865Y79931700D01*
X32826856Y79943235D01*
X32729576Y79845955D01*
X32632723Y79701005D01*
X32566010Y79539945D01*
X32532000Y79368965D01*
X32532000Y79194635D01*
X32566010Y79023655D01*
X32632723Y78862595D01*
X32729576Y78717645D01*
X32852845Y78594376D01*
X32997795Y78497523D01*
X33158855Y78430810D01*
X33329835Y78396800D01*
X33504165Y78396800D01*
X33665001Y78428792D01*
X33665001Y78384848D01*
X32711508Y77431354D01*
X32683462Y77408337D01*
X32591613Y77296419D01*
X32523363Y77168732D01*
X32495523Y77076955D01*
X32481335Y77030185D01*
X32467144Y76886100D01*
X32470700Y76849995D01*
X32470701Y72519215D01*
X32467144Y72483100D01*
X32481335Y72339015D01*
X32506209Y72257019D01*
X32523364Y72200467D01*
X32591614Y72072780D01*
X32683463Y71960862D01*
X32711508Y71937846D01*
X33238003Y71411350D01*
X33211023Y71384370D01*
X33327296Y71268097D01*
X33083329Y71196514D01*
X32962429Y70941004D01*
X32893700Y70666816D01*
X32879783Y70384488D01*
X32921213Y70104870D01*
X33016397Y69838708D01*
X33083329Y69713486D01*
X33327298Y69641903D01*
X34140395Y70455000D01*
X34126253Y70469142D01*
X34305858Y70648747D01*
X34320000Y70634605D01*
X34334143Y70648747D01*
X34513748Y70469142D01*
X34499605Y70455000D01*
X35312702Y69641903D01*
X35498100Y69696301D01*
X35498101Y66769404D01*
X35448923Y66695805D01*
X35382210Y66534745D01*
X35348200Y66363765D01*
X35348200Y66189435D01*
X35382210Y66018455D01*
X35448923Y65857395D01*
X35545776Y65712445D01*
X35669045Y65589176D01*
X35813995Y65492323D01*
X35975055Y65425610D01*
X36146035Y65391600D01*
X36320365Y65391600D01*
X36491345Y65425610D01*
X36652405Y65492323D01*
X36797355Y65589176D01*
X36920624Y65712445D01*
X37017477Y65857395D01*
X37084190Y66018455D01*
X37118200Y66189435D01*
X37118200Y66363765D01*
X37084190Y66534745D01*
X37017477Y66695805D01*
X36968100Y66769703D01*
X36968100Y69126031D01*
X37295001Y68799130D01*
X37295000Y65564625D01*
X37205518Y65555812D01*
X37085820Y65519502D01*
X36975506Y65460537D01*
X36878815Y65381185D01*
X36799463Y65284494D01*
X36740498Y65174180D01*
X36704188Y65054482D01*
X36691928Y64930000D01*
X36691928Y62530000D01*
X36704188Y62405518D01*
X36740498Y62285820D01*
X36799463Y62175506D01*
X36878815Y62078815D01*
X36975506Y61999463D01*
X37085820Y61940498D01*
X37205518Y61904188D01*
X37330000Y61891928D01*
X38930000Y61891928D01*
X39054482Y61904188D01*
X39174180Y61940498D01*
X39284494Y61999463D01*
X39381185Y62078815D01*
X39460537Y62175506D01*
X39519502Y62285820D01*
X39555812Y62405518D01*
X39557581Y62423483D01*
X39650393Y62310392D01*
X39868900Y62131068D01*
X40118193Y61997818D01*
X40388692Y61915764D01*
X40670000Y61888057D01*
X40951309Y61915764D01*
X41221808Y61997818D01*
X41285001Y62031595D01*
X41285001Y61719648D01*
X40030508Y60465154D01*
X40002462Y60442137D01*
X39957645Y60387527D01*
X39901100Y60433932D01*
X39651807Y60567182D01*
X39381308Y60649236D01*
X39100000Y60676943D01*
X38818691Y60649236D01*
X38548192Y60567182D01*
X38298899Y60433932D01*
X38080392Y60254607D01*
X37901068Y60036100D01*
X37830000Y59903142D01*
X37758932Y60036101D01*
X37579607Y60254608D01*
X37361100Y60433932D01*
X37111807Y60567182D01*
X36841308Y60649236D01*
X36560000Y60676943D01*
X36278691Y60649236D01*
X36008192Y60567182D01*
X35758899Y60433932D01*
X35540392Y60254607D01*
X35361068Y60036100D01*
X35290000Y59903142D01*
X35218932Y60036101D01*
X35039607Y60254608D01*
X34821100Y60433932D01*
X34571807Y60567182D01*
X34301308Y60649236D01*
X34020000Y60676943D01*
X33738691Y60649236D01*
X33468192Y60567182D01*
X33218899Y60433932D01*
X33000392Y60254607D01*
X32821068Y60036100D01*
X32750000Y59903142D01*
X32678932Y60036101D01*
X32499607Y60254608D01*
X32281100Y60433932D01*
X32031807Y60567182D01*
X31761308Y60649236D01*
X31480000Y60676943D01*
X31198691Y60649236D01*
X30928192Y60567182D01*
X30678899Y60433932D01*
X30460392Y60254607D01*
X30281068Y60036100D01*
X30210000Y59903142D01*
X30138932Y60036101D01*
X29959607Y60254608D01*
X29741100Y60433932D01*
X29675000Y60469263D01*
X29675000Y69462298D01*
X33506903Y69462298D01*
X33578486Y69218329D01*
X33833996Y69097429D01*
X34108184Y69028700D01*
X34390512Y69014783D01*
X34670130Y69056213D01*
X34936292Y69151397D01*
X35061514Y69218329D01*
X35133097Y69462298D01*
X34320000Y70275395D01*
X33506903Y69462298D01*
X29675000Y69462298D01*
X29675000Y74449133D01*
X29730182Y74425633D01*
X29812961Y74408096D01*
X30035000Y74530085D01*
X30035000Y76073000D01*
X30289000Y76073000D01*
X30289000Y74530085D01*
X30511039Y74408096D01*
X30593818Y74425633D01*
X30853646Y74536285D01*
X31086895Y74695500D01*
X31284601Y74897161D01*
X31439166Y75133517D01*
X31544650Y75395486D01*
X31597000Y75673000D01*
X31597000Y76073000D01*
X30289000Y76073000D01*
X30035000Y76073000D01*
X30015000Y76073000D01*
X30015000Y76327000D01*
X30035000Y76327000D01*
X30035000Y77869915D01*
X30289000Y77869915D01*
X30289000Y76327000D01*
X31597000Y76327000D01*
X31597000Y76727000D01*
X31544650Y77004514D01*
X31439166Y77266483D01*
X31284601Y77502839D01*
X31086895Y77704500D01*
X30853646Y77863715D01*
X30593818Y77974367D01*
X30511039Y77991904D01*
X30289000Y77869915D01*
X30035000Y77869915D01*
X29812961Y77991904D01*
X29730182Y77974367D01*
X29470354Y77863715D01*
X29237105Y77704500D01*
X29039399Y77502839D01*
X28889265Y77273259D01*
X28820932Y77401101D01*
X28641607Y77619608D01*
X28423100Y77798932D01*
X28173807Y77932182D01*
X27903308Y78014236D01*
X27622000Y78041943D01*
X27392141Y78019304D01*
X27410377Y78046595D01*
X27477090Y78207655D01*
X27511100Y78378635D01*
X27511100Y78552965D01*
X27498426Y78616680D01*
X30656193Y81774446D01*
X30684238Y81797462D01*
X30776087Y81909380D01*
X30793165Y81941331D01*
X30844337Y82037066D01*
X30886365Y82175615D01*
X30886826Y82180298D01*
X30963101Y82221068D01*
X31181608Y82400392D01*
X31360932Y82618899D01*
X31494182Y82868192D01*
X31576236Y83138691D01*
X31597000Y83349509D01*
X31597000Y84290492D01*
X31576236Y84501309D01*
X31494182Y84771808D01*
X31360932Y85021101D01*
X31181607Y85239608D01*
X30963100Y85418932D01*
X30713807Y85552182D01*
X30443308Y85634236D01*
X30162000Y85661943D01*
X29880691Y85634236D01*
X29610192Y85552182D01*
X29360899Y85418932D01*
X29142392Y85239607D01*
X28963068Y85021100D01*
X28892000Y84888142D01*
X28820932Y85021101D01*
X28641607Y85239608D01*
X28423100Y85418932D01*
X28173807Y85552182D01*
X27903308Y85634236D01*
X27622000Y85661943D01*
X27340691Y85634236D01*
X27070192Y85552182D01*
X26926000Y85475110D01*
X26926000Y88324795D01*
X26929556Y88360900D01*
X26915365Y88504985D01*
X26908516Y88527563D01*
X26873337Y88643533D01*
X26805087Y88771220D01*
X26721557Y88873000D01*
X31271667Y88873000D01*
X31337763Y88792462D01*
G37*
G04 #@! TD.AperFunction*
D21*
X27720300Y68394953D02*
X27720300Y65507866D01*
X27654039Y65521904D01*
X27432000Y65399915D01*
X27432000Y63857000D01*
X27452000Y63857000D01*
X27452000Y63603000D01*
X27432000Y63603000D01*
X27432000Y62060085D01*
X27654039Y61938096D01*
X27679174Y61943421D01*
X27342308Y61606554D01*
X27314262Y61583537D01*
X27222413Y61471619D01*
X27154163Y61343932D01*
X27124884Y61247413D01*
X27112135Y61205385D01*
X27097944Y61061300D01*
X27101500Y61025195D01*
X27101500Y60554761D01*
X27082337Y60617933D01*
X27065605Y60649236D01*
X27014087Y60745620D01*
X26939500Y60836504D01*
X26939500Y61941583D01*
X26955961Y61938096D01*
X27178000Y62060085D01*
X27178000Y63603000D01*
X27158000Y63603000D01*
X27158000Y63857000D01*
X27178000Y63857000D01*
X27178000Y65399915D01*
X26955961Y65521904D01*
X26939500Y65518417D01*
X26939500Y69175754D01*
X27720300Y68394953D01*
G04 #@! TA.AperFunction,Conductor*
D22*
G36*
X27720300Y68394953D02*
G01*
X27720300Y65507866D01*
X27654039Y65521904D01*
X27432000Y65399915D01*
X27432000Y63857000D01*
X27452000Y63857000D01*
X27452000Y63603000D01*
X27432000Y63603000D01*
X27432000Y62060085D01*
X27654039Y61938096D01*
X27679174Y61943421D01*
X27342308Y61606554D01*
X27314262Y61583537D01*
X27222413Y61471619D01*
X27154163Y61343932D01*
X27124884Y61247413D01*
X27112135Y61205385D01*
X27097944Y61061300D01*
X27101500Y61025195D01*
X27101500Y60554761D01*
X27082337Y60617933D01*
X27065605Y60649236D01*
X27014087Y60745620D01*
X26939500Y60836504D01*
X26939500Y61941583D01*
X26955961Y61938096D01*
X27178000Y62060085D01*
X27178000Y63603000D01*
X27158000Y63603000D01*
X27158000Y63857000D01*
X27178000Y63857000D01*
X27178000Y65399915D01*
X26955961Y65521904D01*
X26939500Y65518417D01*
X26939500Y69175754D01*
X27720300Y68394953D01*
G37*
G04 #@! TD.AperFunction*
D21*
X18803068Y82618899D02*
X18982393Y82400392D01*
X19200900Y82221068D01*
X19450193Y82087818D01*
X19720692Y82005764D01*
X20002000Y81978057D01*
X20283309Y82005764D01*
X20553808Y82087818D01*
X20803101Y82221068D01*
X20964900Y82353853D01*
X22004246Y81314507D01*
X22027262Y81286462D01*
X22139180Y81194613D01*
X22266867Y81126363D01*
X22405415Y81084335D01*
X22513395Y81073700D01*
X22513404Y81073700D01*
X22549499Y81070145D01*
X22585594Y81073700D01*
X23066501Y81073700D01*
X23050513Y81054219D01*
X22982263Y80926532D01*
X22959883Y80852755D01*
X22940235Y80787985D01*
X22926044Y80643900D01*
X22929600Y80607795D01*
X22929600Y77981993D01*
X22823308Y78014236D01*
X22542000Y78041943D01*
X22260691Y78014236D01*
X21990192Y77932182D01*
X21740899Y77798932D01*
X21522392Y77619607D01*
X21343068Y77401100D01*
X21274735Y77273258D01*
X21124601Y77502839D01*
X20926895Y77704500D01*
X20693646Y77863715D01*
X20433818Y77974367D01*
X20351039Y77991904D01*
X20129000Y77869915D01*
X20129000Y76327000D01*
X20149000Y76327000D01*
X20149000Y76073000D01*
X20129000Y76073000D01*
X20129000Y74530085D01*
X20351039Y74408096D01*
X20433818Y74425633D01*
X20693646Y74536285D01*
X20926895Y74695500D01*
X21124601Y74897161D01*
X21274735Y75126741D01*
X21343068Y74998899D01*
X21522393Y74780392D01*
X21740900Y74601068D01*
X21990193Y74467818D01*
X22260692Y74385764D01*
X22542000Y74358057D01*
X22823309Y74385764D01*
X22929600Y74418007D01*
X22929600Y73000512D01*
X22776807Y73082182D01*
X22506308Y73164236D01*
X22225000Y73191943D01*
X21943691Y73164236D01*
X21673192Y73082182D01*
X21423899Y72948932D01*
X21205392Y72769607D01*
X21026068Y72551100D01*
X20955000Y72418142D01*
X20883932Y72551101D01*
X20704607Y72769608D01*
X20486100Y72948932D01*
X20236807Y73082182D01*
X19966308Y73164236D01*
X19685000Y73191943D01*
X19403691Y73164236D01*
X19133192Y73082182D01*
X18980010Y73000304D01*
X18980010Y74794537D01*
X19077105Y74695500D01*
X19310354Y74536285D01*
X19570182Y74425633D01*
X19652961Y74408096D01*
X19875000Y74530085D01*
X19875000Y76073000D01*
X19855000Y76073000D01*
X19855000Y76327000D01*
X19875000Y76327000D01*
X19875000Y77869915D01*
X19652961Y77991904D01*
X19570182Y77974367D01*
X19310354Y77863715D01*
X19077105Y77704500D01*
X18879399Y77502839D01*
X18729265Y77273259D01*
X18660932Y77401101D01*
X18481607Y77619608D01*
X18263100Y77798932D01*
X18013807Y77932182D01*
X17743308Y78014236D01*
X17462000Y78041943D01*
X17180691Y78014236D01*
X17096990Y77988846D01*
X17096990Y82031154D01*
X17180692Y82005764D01*
X17462000Y81978057D01*
X17743309Y82005764D01*
X18013808Y82087818D01*
X18263101Y82221068D01*
X18481608Y82400392D01*
X18660932Y82618899D01*
X18732000Y82751858D01*
X18803068Y82618899D01*
G04 #@! TA.AperFunction,Conductor*
D22*
G36*
X18803068Y82618899D02*
G01*
X18982393Y82400392D01*
X19200900Y82221068D01*
X19450193Y82087818D01*
X19720692Y82005764D01*
X20002000Y81978057D01*
X20283309Y82005764D01*
X20553808Y82087818D01*
X20803101Y82221068D01*
X20964900Y82353853D01*
X22004246Y81314507D01*
X22027262Y81286462D01*
X22139180Y81194613D01*
X22266867Y81126363D01*
X22405415Y81084335D01*
X22513395Y81073700D01*
X22513404Y81073700D01*
X22549499Y81070145D01*
X22585594Y81073700D01*
X23066501Y81073700D01*
X23050513Y81054219D01*
X22982263Y80926532D01*
X22959883Y80852755D01*
X22940235Y80787985D01*
X22926044Y80643900D01*
X22929600Y80607795D01*
X22929600Y77981993D01*
X22823308Y78014236D01*
X22542000Y78041943D01*
X22260691Y78014236D01*
X21990192Y77932182D01*
X21740899Y77798932D01*
X21522392Y77619607D01*
X21343068Y77401100D01*
X21274735Y77273258D01*
X21124601Y77502839D01*
X20926895Y77704500D01*
X20693646Y77863715D01*
X20433818Y77974367D01*
X20351039Y77991904D01*
X20129000Y77869915D01*
X20129000Y76327000D01*
X20149000Y76327000D01*
X20149000Y76073000D01*
X20129000Y76073000D01*
X20129000Y74530085D01*
X20351039Y74408096D01*
X20433818Y74425633D01*
X20693646Y74536285D01*
X20926895Y74695500D01*
X21124601Y74897161D01*
X21274735Y75126741D01*
X21343068Y74998899D01*
X21522393Y74780392D01*
X21740900Y74601068D01*
X21990193Y74467818D01*
X22260692Y74385764D01*
X22542000Y74358057D01*
X22823309Y74385764D01*
X22929600Y74418007D01*
X22929600Y73000512D01*
X22776807Y73082182D01*
X22506308Y73164236D01*
X22225000Y73191943D01*
X21943691Y73164236D01*
X21673192Y73082182D01*
X21423899Y72948932D01*
X21205392Y72769607D01*
X21026068Y72551100D01*
X20955000Y72418142D01*
X20883932Y72551101D01*
X20704607Y72769608D01*
X20486100Y72948932D01*
X20236807Y73082182D01*
X19966308Y73164236D01*
X19685000Y73191943D01*
X19403691Y73164236D01*
X19133192Y73082182D01*
X18980010Y73000304D01*
X18980010Y74794537D01*
X19077105Y74695500D01*
X19310354Y74536285D01*
X19570182Y74425633D01*
X19652961Y74408096D01*
X19875000Y74530085D01*
X19875000Y76073000D01*
X19855000Y76073000D01*
X19855000Y76327000D01*
X19875000Y76327000D01*
X19875000Y77869915D01*
X19652961Y77991904D01*
X19570182Y77974367D01*
X19310354Y77863715D01*
X19077105Y77704500D01*
X18879399Y77502839D01*
X18729265Y77273259D01*
X18660932Y77401101D01*
X18481607Y77619608D01*
X18263100Y77798932D01*
X18013807Y77932182D01*
X17743308Y78014236D01*
X17462000Y78041943D01*
X17180691Y78014236D01*
X17096990Y77988846D01*
X17096990Y82031154D01*
X17180692Y82005764D01*
X17462000Y81978057D01*
X17743309Y82005764D01*
X18013808Y82087818D01*
X18263101Y82221068D01*
X18481608Y82400392D01*
X18660932Y82618899D01*
X18732000Y82751858D01*
X18803068Y82618899D01*
G37*
G04 #@! TD.AperFunction*
D21*
X25456001Y80409001D02*
X25431313Y80378919D01*
X25363063Y80251232D01*
X25343781Y80187667D01*
X25321035Y80112685D01*
X25306844Y79968600D01*
X25310400Y79932495D01*
X25310401Y78088515D01*
X25306844Y78052400D01*
X25318872Y77930279D01*
X25209000Y77869915D01*
X25209000Y76327000D01*
X25229000Y76327000D01*
X25229000Y76073000D01*
X25209000Y76073000D01*
X25209000Y74530085D01*
X25431039Y74408096D01*
X25469500Y74416244D01*
X25469500Y73000566D01*
X25316807Y73082182D01*
X25046308Y73164236D01*
X24765000Y73191943D01*
X24483691Y73164236D01*
X24399600Y73138728D01*
X24399600Y74532347D01*
X24650182Y74425633D01*
X24732961Y74408096D01*
X24955000Y74530085D01*
X24955000Y76073000D01*
X24935000Y76073000D01*
X24935000Y76327000D01*
X24955000Y76327000D01*
X24955000Y77869915D01*
X24732961Y77991904D01*
X24650182Y77974367D01*
X24399600Y77867653D01*
X24399600Y80339454D01*
X24659896Y80599749D01*
X24769355Y80554410D01*
X24940335Y80520400D01*
X25114665Y80520400D01*
X25285645Y80554410D01*
X25446705Y80621123D01*
X25456001Y80627334D01*
X25456001Y80409001D01*
G04 #@! TA.AperFunction,Conductor*
D22*
G36*
X25456001Y80409001D02*
G01*
X25431313Y80378919D01*
X25363063Y80251232D01*
X25343781Y80187667D01*
X25321035Y80112685D01*
X25306844Y79968600D01*
X25310400Y79932495D01*
X25310401Y78088515D01*
X25306844Y78052400D01*
X25318872Y77930279D01*
X25209000Y77869915D01*
X25209000Y76327000D01*
X25229000Y76327000D01*
X25229000Y76073000D01*
X25209000Y76073000D01*
X25209000Y74530085D01*
X25431039Y74408096D01*
X25469500Y74416244D01*
X25469500Y73000566D01*
X25316807Y73082182D01*
X25046308Y73164236D01*
X24765000Y73191943D01*
X24483691Y73164236D01*
X24399600Y73138728D01*
X24399600Y74532347D01*
X24650182Y74425633D01*
X24732961Y74408096D01*
X24955000Y74530085D01*
X24955000Y76073000D01*
X24935000Y76073000D01*
X24935000Y76327000D01*
X24955000Y76327000D01*
X24955000Y77869915D01*
X24732961Y77991904D01*
X24650182Y77974367D01*
X24399600Y77867653D01*
X24399600Y80339454D01*
X24659896Y80599749D01*
X24769355Y80554410D01*
X24940335Y80520400D01*
X25114665Y80520400D01*
X25285645Y80554410D01*
X25446705Y80621123D01*
X25456001Y80627334D01*
X25456001Y80409001D01*
G37*
G04 #@! TD.AperFunction*
M02*
